<?xml version="1.0" encoding="UTF-8" standalone="no"?>
<!-- Created with Inkscape (http://www.inkscape.org/) -->

<svg
   xmlns:dc="http://purl.org/dc/elements/1.1/"
   xmlns:cc="http://creativecommons.org/ns#"
   xmlns:rdf="http://www.w3.org/1999/02/22-rdf-syntax-ns#"
   xmlns:svg="http://www.w3.org/2000/svg"
   xmlns="http://www.w3.org/2000/svg"
   xmlns:xlink="http://www.w3.org/1999/xlink"
   xmlns:sodipodi="http://sodipodi.sourceforge.net/DTD/sodipodi-0.dtd"
   xmlns:inkscape="http://www.inkscape.org/namespaces/inkscape"
   width="1024"
   height="1024"
   id="svg2"
   version="1.1"
   inkscape:version="0.48.2 r9819"
   sodipodi:docname="ic_launcher.svg">
  <defs
     id="defs4">
    <linearGradient
       inkscape:collect="always"
       id="linearGradient3839">
      <stop
         style="stop-color:#26c6da;stop-opacity:1;"
         offset="0"
         id="stop3841" />
      <stop
         style="stop-color:#26c6da;stop-opacity:0;"
         offset="1"
         id="stop3843" />
    </linearGradient>
    <linearGradient
       inkscape:collect="always"
       id="linearGradient3831">
      <stop
         style="stop-color:#00acc1;stop-opacity:1"
         offset="0"
         id="stop3833" />
      <stop
         style="stop-color:#0097a7;stop-opacity:1"
         offset="1"
         id="stop3835" />
    </linearGradient>
    <linearGradient
       inkscape:collect="always"
       id="linearGradient3783">
      <stop
         style="stop-color:#616161;stop-opacity:1"
         offset="0"
         id="stop3785" />
      <stop
         style="stop-color:#212121;stop-opacity:1"
         offset="1"
         id="stop3787" />
    </linearGradient>
    <linearGradient
       inkscape:collect="always"
       xlink:href="#linearGradient3783"
       id="linearGradient4115"
       gradientUnits="userSpaceOnUse"
       x1="671.42859"
       y1="507.56827"
       x2="931.42865"
       y2="953.28253"
       gradientTransform="translate(-188.57143,-97.142857)" />
    <filter
       id="filter4298"
       inkscape:label="Drop shadow"
       width="1.5"
       height="1.5"
       x="-.25"
       y="-.25">
      <feGaussianBlur
         id="feGaussianBlur4300"
         in="SourceAlpha"
         stdDeviation="20"
         result="blur" />
      <feColorMatrix
         id="feColorMatrix4302"
         result="bluralpha"
         type="matrix"
         values="1 0 0 0 0 0 1 0 0 0 0 0 1 0 0 0 0 0 0.4 0 " />
      <feOffset
         id="feOffset4304"
         in="bluralpha"
         dx="0"
         dy="20"
         result="offsetBlur" />
      <feMerge
         id="feMerge4306">
        <feMergeNode
           id="feMergeNode4308"
           in="offsetBlur" />
        <feMergeNode
           id="feMergeNode4310"
           in="SourceGraphic" />
      </feMerge>
    </filter>
    <linearGradient
       inkscape:collect="always"
       xlink:href="#linearGradient3783"
       id="linearGradient4335"
       gradientUnits="userSpaceOnUse"
       gradientTransform="translate(-188.57143,-97.142857)"
       x1="671.42859"
       y1="507.56827"
       x2="931.42865"
       y2="953.28253" />
    <linearGradient
       inkscape:collect="always"
       xlink:href="#linearGradient3783"
       id="linearGradient4347"
       gradientUnits="userSpaceOnUse"
       gradientTransform="translate(-188.57143,-97.142857)"
       x1="671.42859"
       y1="507.56827"
       x2="931.42865"
       y2="953.28253" />
    <filter
       id="filter4400"
       inkscape:label="Drop shadow"
       width="1.5"
       height="1.5"
       x="-.25"
       y="-.25">
      <feGaussianBlur
         id="feGaussianBlur4402"
         in="SourceAlpha"
         stdDeviation="10"
         result="blur" />
      <feColorMatrix
         id="feColorMatrix4404"
         result="bluralpha"
         type="matrix"
         values="1 0 0 0 0 0 1 0 0 0 0 0 1 0 0 0 0 0 0.4 0 " />
      <feOffset
         id="feOffset4406"
         in="bluralpha"
         dx="0"
         dy="10"
         result="offsetBlur" />
      <feMerge
         id="feMerge4408">
        <feMergeNode
           id="feMergeNode4410"
           in="offsetBlur" />
        <feMergeNode
           id="feMergeNode4412"
           in="SourceGraphic" />
      </feMerge>
    </filter>
    <clipPath
       clipPathUnits="userSpaceOnUse"
       id="clipPath3811">
      <rect
         ry="103.25643"
         rx="103.25643"
         y="193.82669"
         x="135.07018"
         height="652.82501"
         width="652.82501"
         id="rect3813"
         style="fill:#b2ebf2;fill-opacity:1;stroke:none" />
    </clipPath>
    <clipPath
       clipPathUnits="userSpaceOnUse"
       id="clipPath3827">
      <rect
         ry="144.24979"
         rx="144.24979"
         y="84.362183"
         x="56"
         height="912"
         width="912"
         id="rect3829"
         style="fill:#80deea;fill-opacity:1;stroke:none" />
    </clipPath>
    <linearGradient
       inkscape:collect="always"
       xlink:href="#linearGradient3831"
       id="linearGradient3837"
       x1="269.94989"
       y1="226.50778"
       x2="774.59277"
       y2="879.87445"
       gradientUnits="userSpaceOnUse" />
    <linearGradient
       inkscape:collect="always"
       xlink:href="#linearGradient3839"
       id="linearGradient3845"
       x1="346.97525"
       y1="265.74844"
       x2="959.51471"
       y2="978.51208"
       gradientUnits="userSpaceOnUse" />
  </defs>
  <sodipodi:namedview
     id="base"
     pagecolor="#ffffff"
     bordercolor="#666666"
     borderopacity="1.0"
     inkscape:pageopacity="0.0"
     inkscape:pageshadow="2"
     inkscape:zoom="0.35355339"
     inkscape:cx="7.4624881"
     inkscape:cy="552.57569"
     inkscape:document-units="px"
     inkscape:current-layer="layer1"
     showgrid="false"
     inkscape:window-width="1413"
     inkscape:window-height="724"
     inkscape:window-x="41"
     inkscape:window-y="35"
     inkscape:window-maximized="0" />
  <metadata
     id="metadata7">
    <rdf:RDF>
      <cc:Work
         rdf:about="">
        <dc:format>image/svg+xml</dc:format>
        <dc:type
           rdf:resource="http://purl.org/dc/dcmitype/StillImage" />
        <dc:title />
      </cc:Work>
    </rdf:RDF>
  </metadata>
  <g
     inkscape:label="Layer 1"
     inkscape:groupmode="layer"
     id="layer1"
     transform="translate(0,-28.362183)"
     style="display:inline">
    <rect
       style="fill:#8bc34a;fill-opacity:1;stroke:none"
       id="rect3757"
       width="912"
       height="912"
       x="56"
       y="84.362183"
       rx="144.24979"
       ry="144.24979" />
  </g>
  <g
     inkscape:groupmode="layer"
     id="layer2"
     inkscape:label="adjuster"
     style="display:none"
     sodipodi:insensitive="true">
    <rect
       transform="translate(0,-28.362183)"
       style="opacity:0.8;fill:#ffffff;fill-opacity:1;stroke:none;display:inline"
       id="rect3034"
       width="456"
       height="456"
       x="56"
       y="84.362091"
       rx="157.13515"
       ry="156.08055" />
    <rect
       transform="translate(0,-28.362183)"
       ry="156.08055"
       rx="157.13515"
       y="540.36218"
       x="56"
       height="456"
       width="456"
       id="rect3036"
       style="opacity:0.8;fill:#ffffff;fill-opacity:1;stroke:none;display:inline" />
    <rect
       transform="translate(0,-28.362183)"
       ry="156.08055"
       rx="157.13515"
       y="84.362091"
       x="512"
       height="456"
       width="456"
       id="rect3038"
       style="opacity:0.8;fill:#ffffff;fill-opacity:1;stroke:none;display:inline" />
    <rect
       transform="translate(0,-28.362183)"
       style="opacity:0.8;fill:#ffffff;fill-opacity:1;stroke:none;display:inline"
       id="rect3040"
       width="456"
       height="456"
       x="512"
       y="540.36218"
       rx="157.13515"
       ry="156.08055" />
  </g>
  <g
     inkscape:groupmode="layer"
     id="icon2"
     inkscape:label="icon"
     transform="translate(0,-1000)">
    <g
       id="g2986"
       transform="matrix(14.222222,0,0,14.222222,113.33334,-12652.889)">
      <path
         inkscape:connector-curvature="0"
         id="rect4878"
         d="m 21,1003 0,1.5 0,6.9375 -1.5,0 0,-5.877 -5.791992,5.792 -1.060547,-1.0605 5.791992,-5.792 -5.876953,0 0,-1.5 6.9375,0 0.439453,0 L 21,1003 z"
         style="opacity:0.8;fill:#ffffff;fill-opacity:1;stroke:none" />
      <path
         inkscape:connector-curvature="0"
         id="rect4880"
         d="m 4.5,1012.5625 0,5.877 5.791992,-5.792 1.060547,1.0605 -5.7919921,5.792 5.8769531,0 0,1.5 -6.9375,0 -1.5,0 0,-1.0605 0,-0.4395 0,-6.9375 1.5,0 z"
         style="opacity:0.8;fill:#ffffff;fill-opacity:1;stroke:none" />
    </g>
  </g>
  <g
     inkscape:label="icon2"
     inkscape:groupmode="layer"
     id="g44"
     transform="translate(0,-1028.3622)">
    <g
       id="g3030"
       transform="translate(3.4795609,45.760267)">
      <rect
         y="1373.2684"
         x="162.12035"
         height="21.333349"
         width="236.80019"
         id="rect3776"
         style="opacity:0.8;fill:#ffffff;fill-opacity:0.94117647;stroke:none" />
      <path
         inkscape:connector-curvature="0"
         id="rect3006"
         d="m 269.85377,1138.6019 0,159.0001 -72.33339,-72.3334 -15.00002,15 83.00007,83.0001 15.00001,15.3333 15.00001,-15.3333 83.00006,-83.0001 -15.00001,-15 -72.33339,72.3334 0,-159.0001 -21.33334,0 z"
         style="opacity:0.8;fill:#ffffff;fill-opacity:0.94117647;stroke:none" />
    </g>
  </g>
  <g
     inkscape:label="icon3"
     inkscape:groupmode="layer"
     id="icon3"
     transform="translate(0,-1028.3622)">
    <path
       style="opacity:0.8;fill:#ffffff;fill-opacity:0.94117647;stroke:none"
       d="m 745.83379,1640.3622 -82.35926,51.4756 82.35926,51.4735 0,-44.5366 c 45.79756,3.0055 82.01608,41.1137 82.01608,87.7005 0,48.5491 -39.33172,87.9147 -87.84987,87.9147 -48.51814,0 -87.84987,-39.3656 -87.84987,-87.9147 0,-14.2668 3.39797,-27.7331 9.42628,-39.6466 l -18.69169,-11.6885 c -8.10573,15.321 -12.69705,32.7911 -12.69705,51.3351 0,60.6856 49.16465,109.887 109.81233,109.887 60.64768,0 109.81233,-49.2014 109.81233,-109.887 0,-58.7287 -46.0428,-106.6915 -103.97854,-109.7278 l 0,-36.3852 z"
       id="path3755"
       inkscape:connector-curvature="0" />
  </g>
  <g
     inkscape:label="icon4"
     inkscape:groupmode="layer"
     id="icon4"
     transform="translate(0,-1028.3622)">
    <g
       id="g3027"
       transform="matrix(10.666667,0,0,10.666667,611.99999,-9784.835)">
      <path
         id="path4318"
         d="m 10.097252,1028.3622 0,2.6767 c -2.0587894,0.4179 -3.875565,1.5012 -5.2176934,3.0149 l -2.3208327,-1.3398 -1.90274845,3.2955 2.31804565,1.3379 c -0.3163605,0.9474 -0.4877651,1.9609 -0.4877651,3.0148 0,1.0539 0.1714046,2.0674 0.4877651,3.0148 l -2.31804565,1.3379 1.90274845,3.2955 2.3208327,-1.3398 c 1.3421284,1.5137 3.158904,2.597 5.2176934,3.0149 l 0,2.6767 3.805497,0 0,-2.6767 c 2.058789,-0.4179 3.875565,-1.5012 5.217692,-3.0149 l 2.320833,1.3398 1.902749,-3.2955 -2.318045,-1.3379 c 0.31636,-0.9474 0.487765,-1.9609 0.487765,-3.0148 0,-1.0539 -0.171405,-2.0674 -0.487765,-3.0148 l 2.318045,-1.3379 -1.902749,-3.2955 -2.320833,1.3398 c -1.342127,-1.5137 -3.158903,-2.597 -5.217692,-3.0149 l 0,-2.6767 -3.805497,0 z M 12,1032.7512 c 4.203437,0 7.610994,3.4076 7.610994,7.611 0,4.2034 -3.407557,7.611 -7.610994,7.611 -4.2034354,0 -7.6109936,-3.4076 -7.6109936,-7.611 0,-4.2034 3.4075582,-7.611 7.6109936,-7.611 z"
         style="opacity:0.8;fill:#ffffff;fill-opacity:0.94117647;stroke:none"
         inkscape:connector-curvature="0" />
    </g>
  </g>
</svg>
