<?xml version="1.0" encoding="UTF-8" standalone="no"?>
<!-- Created with Inkscape (http://www.inkscape.org/) -->

<svg
   xmlns:dc="http://purl.org/dc/elements/1.1/"
   xmlns:cc="http://creativecommons.org/ns#"
   xmlns:rdf="http://www.w3.org/1999/02/22-rdf-syntax-ns#"
   xmlns:svg="http://www.w3.org/2000/svg"
   xmlns="http://www.w3.org/2000/svg"
   xmlns:sodipodi="http://sodipodi.sourceforge.net/DTD/sodipodi-0.dtd"
   xmlns:inkscape="http://www.inkscape.org/namespaces/inkscape"
   width="24"
   height="24"
   id="svg3795"
   version="1.1"
   inkscape:version="0.48.2 r9819"
   sodipodi:docname="ic_action_share.svg">
  <defs
     id="defs3797" />
  <sodipodi:namedview
     id="base"
     pagecolor="#ffffff"
     bordercolor="#666666"
     borderopacity="1.0"
     inkscape:pageopacity="0.0"
     inkscape:pageshadow="2"
     inkscape:zoom="34.916667"
     inkscape:cx="7.3460621"
     inkscape:cy="12.000139"
     inkscape:document-units="px"
     inkscape:current-layer="icon"
     showgrid="true"
     showguides="true"
     inkscape:guide-bbox="true"
     inkscape:window-width="1920"
     inkscape:window-height="1032"
     inkscape:window-x="0"
     inkscape:window-y="0"
     inkscape:window-maximized="1"
     inkscape:snap-global="true">
    <sodipodi:guide
       orientation="0,1"
       position="580,0"
       id="guide4320" />
    <sodipodi:guide
       position="0,0"
       orientation="0,1024"
       id="guide4322" />
    <sodipodi:guide
       position="1024,0"
       orientation="-1024,0"
       id="guide4324" />
    <sodipodi:guide
       position="1024,1024"
       orientation="0,-1024"
       id="guide4326" />
    <sodipodi:guide
       position="0,1024"
       orientation="1024,0"
       id="guide4328" />
    <inkscape:grid
       type="xygrid"
       id="grid3006"
       empspacing="5"
       visible="true"
       enabled="true"
       snapvisiblegridlinesonly="true" />
  </sodipodi:namedview>
  <metadata
     id="metadata3800">
    <rdf:RDF>
      <cc:Work
         rdf:about="">
        <dc:format>image/svg+xml</dc:format>
        <dc:type
           rdf:resource="http://purl.org/dc/dcmitype/StillImage" />
      </cc:Work>
    </rdf:RDF>
  </metadata>
  <g
     inkscape:groupmode="layer"
     id="background"
     inkscape:label="background"
     transform="translate(0,-1000)"
     sodipodi:insensitive="true">
    <rect
       transform="translate(0,-28.3622)"
       style="fill:#000000;fill-opacity:1;stroke:none"
       id="rect4314"
       width="24"
       height="24"
       x="0"
       y="1028.3621" />
  </g>
  <g
     inkscape:label="icon"
     inkscape:groupmode="layer"
     id="icon"
     transform="translate(0,-1028.3622)">
    <path
       style="opacity:0.8;fill:#ffffff;fill-opacity:1;stroke:none"
       d="M 17 2.03125 C 15.343152 2.02545 14.0058 3.37445 14 5.03125 C 13.999184 5.2614346 14.045428 5.4718356 14.09375 5.6875 L 7.5625 9.4375 C 7.1079434 9.1571575 6.5723225 9 6 9 C 4.343151 8.9942 3.00588 10.3432 3 12 C 2.9941268 13.6569 4.3431511 15 6 15 C 6.5807575 15.002033 7.1021507 14.846569 7.5625 14.5625 L 14.09375 18.3125 C 14.04345 18.528565 14.00081 18.768738 14 19 C 13.994128 20.6569 15.343151 22 17 22 C 18.656849 22.0058 19.9942 20.6569 20 19 L 20 18.96875 C 19.975533 17.33375 18.666458 16 17.03125 16 C 16.322217 15.997518 15.671173 16.246788 15.15625 16.65625 L 8.8125 12.96875 C 8.9147724 12.668409 8.9988117 12.366082 9 12.03125 L 9 11.96875 C 8.9950557 11.638344 8.9157775 11.327648 8.8125 11.03125 L 15.125 7.375 C 15.636998 7.7884879 16.290966 8.03125 17 8.03125 C 18.656849 8.03705 19.9942 6.7194 20 5.0625 L 20 5 C 19.975533 3.365 18.635208 2.03125 17 2.03125 z "
       transform="translate(0,1028.3622)"
       id="path2993" />
  </g>
</svg>
