<?xml version="1.0" encoding="UTF-8" standalone="no"?>
<!-- Created with Inkscape (http://www.inkscape.org/) -->

<svg
   xmlns:dc="http://purl.org/dc/elements/1.1/"
   xmlns:cc="http://creativecommons.org/ns#"
   xmlns:rdf="http://www.w3.org/1999/02/22-rdf-syntax-ns#"
   xmlns:svg="http://www.w3.org/2000/svg"
   xmlns="http://www.w3.org/2000/svg"
   xmlns:sodipodi="http://sodipodi.sourceforge.net/DTD/sodipodi-0.dtd"
   xmlns:inkscape="http://www.inkscape.org/namespaces/inkscape"
   width="24"
   height="24"
   id="svg4909"
   version="1.1"
   inkscape:version="0.48.2 r9819"
   sodipodi:docname="ic_action_edit.svg"
   style="enable-background:new">
  <defs
     id="defs4911" />
  <sodipodi:namedview
     id="base"
     pagecolor="#ffffff"
     bordercolor="#666666"
     borderopacity="1.0"
     inkscape:pageopacity="0.0"
     inkscape:pageshadow="2"
     inkscape:zoom="15.839192"
     inkscape:cx="12.444445"
     inkscape:cy="12.857148"
     inkscape:document-units="px"
     inkscape:current-layer="background"
     showgrid="false"
     inkscape:window-width="1231"
     inkscape:window-height="856"
     inkscape:window-x="0"
     inkscape:window-y="0"
     inkscape:window-maximized="0" />
  <metadata
     id="metadata4914">
    <rdf:RDF>
      <cc:Work
         rdf:about="">
        <dc:format>image/svg+xml</dc:format>
        <dc:type
           rdf:resource="http://purl.org/dc/dcmitype/StillImage" />
        <dc:title />
      </cc:Work>
    </rdf:RDF>
  </metadata>
  <g
     inkscape:groupmode="layer"
     id="background"
     inkscape:label="background"
     transform="translate(0,-1000)">
    <rect
       transform="translate(0,-28.3622)"
       style="enable-background:new;fill:#000000;fill-opacity:1;stroke:none"
       id="rect5426"
       width="24"
       height="24"
       x="-8.8817842e-16"
       y="1028.3623" />
  </g>
  <g
     inkscape:label="icon"
     inkscape:groupmode="layer"
     id="icon"
     transform="translate(0,-1028.3622)">
    <path
       inkscape:connector-curvature="0"
       style="opacity:0.8;fill:#ffffff;fill-opacity:0.94117647;stroke:none"
       d="m 2.6937461,1042.1111 2.5243969,0.6803 0.9001864,3.3566 3.3626467,0.9014 0.6766579,2.5256 10.616926,-10.6169 -7.463892,-7.4639 c 0,0 -7.494682,7.4947 -10.6169219,10.6169 z m 1.5387083,1.6611 L 1.8428917,1043.132 0,1052.4558 l 9.1367081,-2.0251 -0.6414281,-2.3956 -3.3589946,-0.9002 0.00122,-0.01 -0.00607,0 -0.8989713,-3.3578 z"
       id="rect3757"
       sodipodi:nodetypes="cccccccccccccccccc" />
    <path
       inkscape:connector-curvature="0"
       style="opacity:0.8;fill:#ffffff;fill-opacity:0.94117647;stroke:none"
       d="m 17.3625,1028.2686 c -0.38837,0 -0.776168,0.1136 -1.112109,0.3398 l -0.02695,-0.027 -0.274218,0.2743 -0.283594,0.2836 -1.474219,1.4742 7.464844,7.4636 1.460156,-1.4613 0.296485,-0.2953 c 0.0053,-0.01 0.01,-0.011 0.01523,-0.016 l 0.258984,-0.259 -0.02695,-0.027 c 0.523646,-0.778 0.441877,-1.8363 -0.247265,-2.5254 l -4.63711,-4.6371 c -0.391591,-0.3916 -0.902233,-0.5871 -1.413281,-0.5871 z"
       id="rect3774" />
  </g>
</svg>
