<?xml version="1.0" encoding="UTF-8" standalone="no"?>
<!-- Created with Inkscape (http://www.inkscape.org/) -->

<svg
   xmlns:dc="http://purl.org/dc/elements/1.1/"
   xmlns:cc="http://creativecommons.org/ns#"
   xmlns:rdf="http://www.w3.org/1999/02/22-rdf-syntax-ns#"
   xmlns:svg="http://www.w3.org/2000/svg"
   xmlns="http://www.w3.org/2000/svg"
   xmlns:sodipodi="http://sodipodi.sourceforge.net/DTD/sodipodi-0.dtd"
   xmlns:inkscape="http://www.inkscape.org/namespaces/inkscape"
   width="24"
   height="24"
   id="svg2990"
   version="1.1"
   inkscape:version="0.48.2 r9819"
   sodipodi:docname="ic_action_tag.svg"
   inkscape:export-xdpi="1.05"
   inkscape:export-ydpi="1.05">
  <defs
     id="defs2992" />
  <sodipodi:namedview
     id="base"
     pagecolor="#ffffff"
     bordercolor="#666666"
     borderopacity="1.0"
     inkscape:pageopacity="0.0"
     inkscape:pageshadow="2"
     inkscape:zoom="16"
     inkscape:cx="12.127644"
     inkscape:cy="11.919526"
     inkscape:document-units="px"
     inkscape:current-layer="icon"
     showgrid="false"
     inkscape:window-width="1237"
     inkscape:window-height="777"
     inkscape:window-x="20"
     inkscape:window-y="20"
     inkscape:window-maximized="0" />
  <metadata
     id="metadata2995">
    <rdf:RDF>
      <cc:Work
         rdf:about="">
        <dc:format>image/svg+xml</dc:format>
        <dc:type
           rdf:resource="http://purl.org/dc/dcmitype/StillImage" />
        <dc:title />
      </cc:Work>
    </rdf:RDF>
  </metadata>
  <g
     inkscape:groupmode="layer"
     id="background"
     inkscape:label="background"
     transform="translate(0,-1000)">
    <rect
       style="fill:#000000;fill-opacity:1;stroke:none"
       id="rect2984"
       width="24"
       height="24"
       x="0"
       y="1000" />
  </g>
  <g
     inkscape:label="icon"
     inkscape:groupmode="layer"
     id="icon"
     transform="translate(0,-1028.3622)">
    <path
       style="opacity:0.8;fill:#ffffff;fill-opacity:0.94117647;stroke:none"
       d="m -0.0097667,1028.3648 0,12.0208 c 0.00173,0.013 0.022422,0.012 0.022097,0.022 -1.14e-5,0.5746 0.2524822,1.0718 0.6408156,1.4363 l 9.8773981,9.9216 c 0.364593,0.3884 0.861687,0.5967 1.436311,0.5967 0.574712,0 1.138053,-0.2305 1.502601,-0.6188 l 9.855301,-9.8995 c 0.388489,-0.3644 0.685017,-0.9059 0.68501,-1.4805 -9e-6,-0.5747 -0.274599,-1.0497 -0.662913,-1.4142 l -9.877398,-9.8774 c -0.364541,-0.3884 -0.883734,-0.7072 -1.458407,-0.7071 l -12.0208158,0 z m 2.010835,2.0109 9.9878837,0 10.00998,10.0099 -9.987883,9.9879 -10.0099807,-10.01 0,-9.9878 z"
       id="path3753"
       inkscape:connector-curvature="0" />
    <path
       sodipodi:type="arc"
       style="opacity:0.8;fill:#ffffff;fill-opacity:0.94117647;stroke:none"
       id="path3805"
       sodipodi:cx="7.7781744"
       sodipodi:cy="7.4271846"
       sodipodi:rx="2.3864853"
       sodipodi:ry="2.3864853"
       d="m 10.16466,7.4271846 a 2.3864853,2.3864853 0 1 1 -4.7729709,0 2.3864853,2.3864853 0 1 1 4.7729709,0 z"
       transform="matrix(0.8380525,0,0,0.8380525,1.4814815,1030.1378)" />
  </g>
</svg>
