<?xml version="1.0" encoding="UTF-8" standalone="no"?>
<!-- Created with Inkscape (http://www.inkscape.org/) -->

<svg
   xmlns:dc="http://purl.org/dc/elements/1.1/"
   xmlns:cc="http://creativecommons.org/ns#"
   xmlns:rdf="http://www.w3.org/1999/02/22-rdf-syntax-ns#"
   xmlns:svg="http://www.w3.org/2000/svg"
   xmlns="http://www.w3.org/2000/svg"
   xmlns:sodipodi="http://sodipodi.sourceforge.net/DTD/sodipodi-0.dtd"
   xmlns:inkscape="http://www.inkscape.org/namespaces/inkscape"
   width="24"
   height="24"
   id="svg2"
   version="1.1"
   inkscape:version="0.48.2 r9819"
   sodipodi:docname="ic_action_help.svg">
  <defs
     id="defs4" />
  <sodipodi:namedview
     id="base"
     pagecolor="#ffffff"
     bordercolor="#666666"
     borderopacity="1.0"
     inkscape:pageopacity="0.0"
     inkscape:pageshadow="2"
     inkscape:zoom="34.91664"
     inkscape:cx="12"
     inkscape:cy="11.999991"
     inkscape:document-units="px"
     inkscape:current-layer="icon"
     showgrid="true"
     inkscape:window-width="1920"
     inkscape:window-height="1032"
     inkscape:window-x="0"
     inkscape:window-y="0"
     inkscape:window-maximized="1">
    <inkscape:grid
       type="xygrid"
       id="grid3756" />
  </sodipodi:namedview>
  <metadata
     id="metadata7">
    <rdf:RDF>
      <cc:Work
         rdf:about="">
        <dc:format>image/svg+xml</dc:format>
        <dc:type
           rdf:resource="http://purl.org/dc/dcmitype/StillImage" />
      </cc:Work>
    </rdf:RDF>
  </metadata>
  <g
     inkscape:groupmode="layer"
     id="background"
     inkscape:label="Background"
     transform="translate(0,-1000)">
    <path
       style="fill:#000000;fill-opacity:1;stroke:none"
       d="m 0,1000 0,24 24,0 0,-24 -24,0 z"
       id="rect3758"
       inkscape:connector-curvature="0" />
  </g>
  <g
     inkscape:label="icon"
     inkscape:groupmode="layer"
     id="icon"
     transform="translate(0,-1028.3622)">
    <g
       transform="matrix(0.09538714,0,0,0.09538714,-26.129146,1006.7915)"
       style="font-size:40px;font-style:normal;font-weight:normal;line-height:125%;letter-spacing:0px;word-spacing:0px;opacity:0.8;fill:#ffffff;fill-opacity:0.94117647;stroke:none;font-family:Sans"
       id="flowRoot3777">
      <path
         d="m 410.94531,372.01601 -26.71875,0 0,-2.67187 c -3e-5,-4.54684 0.5156,-8.22652 1.54688,-11.03906 1.03122,-2.85933 2.55465,-5.46089 4.57031,-7.80469 2.06246,-2.34369 6.65621,-6.46869 13.78125,-12.375 3.79682,-3.09368 5.69526,-5.92962 5.69531,-8.50781 -5e-5,-2.57805 -0.77349,-4.57024 -2.32031,-5.97657 -1.50005,-1.45304 -3.79692,-2.1796 -6.89063,-2.17968 -3.32816,8e-5 -6.09378,1.10164 -8.29687,3.30468 -2.15628,2.20321 -3.5391,6.04695 -4.14844,11.53125 l -27.28125,-3.375 c 0.9375,-10.03116 4.57031,-18.09366 10.89844,-24.1875 6.37498,-6.14052 16.12497,-9.21083 29.25,-9.21093 10.21869,1e-4 18.46869,2.13291 24.75,6.39843 8.53117,5.76572 12.79679,13.45321 12.79687,23.0625 -8e-5,3.98445 -1.10164,7.8282 -3.30468,11.53125 -2.2032,3.70319 -6.7032,8.22662 -13.5,13.57032 -4.73444,3.75004 -7.73444,6.77348 -9,9.07031 -1.21881,2.25004 -1.82818,5.20316 -1.82813,8.85937 m -27.63281,7.10157 28.61719,0 0,25.24218 -28.61719,0 0,-25.24218"
         style="font-size:144px;font-variant:normal;font-stretch:normal;text-align:start;line-height:125%;writing-mode:lr-tb;text-anchor:start;fill:#ffffff;font-family:Arial Black;-inkscape-font-specification:'Arial Black,'"
         id="path3804"
         inkscape:connector-curvature="0" />
    </g>
    <path
       style="opacity:0.8;fill:#ffffff;fill-opacity:1;stroke:none"
       d="M 12 2 C 6.4771525 2 2 6.4772 2 12 C 2 17.5228 6.4771525 22 12 22 C 17.522847 22 22 17.5228 22 12 C 22 6.4772 17.522847 2 12 2 z M 12 4 C 16.418278 4 20 7.5818 20 12 C 20 16.4182 16.418278 20 12 20 C 7.581722 20 4 16.4182 4 12 C 4 7.5818 7.581722 4 12 4 z "
       transform="translate(0,1028.3622)"
       id="path3761" />
  </g>
</svg>
