<?xml version="1.0" encoding="UTF-8" standalone="no"?>
<!-- Created with Inkscape (http://www.inkscape.org/) -->

<svg
   xmlns:dc="http://purl.org/dc/elements/1.1/"
   xmlns:cc="http://creativecommons.org/ns#"
   xmlns:rdf="http://www.w3.org/1999/02/22-rdf-syntax-ns#"
   xmlns:svg="http://www.w3.org/2000/svg"
   xmlns="http://www.w3.org/2000/svg"
   xmlns:sodipodi="http://sodipodi.sourceforge.net/DTD/sodipodi-0.dtd"
   xmlns:inkscape="http://www.inkscape.org/namespaces/inkscape"
   width="24"
   height="24"
   id="svg4909"
   version="1.1"
   inkscape:version="0.48.2 r9819"
   sodipodi:docname="ic_action_comment.svg">
  <defs
     id="defs4911" />
  <sodipodi:namedview
     id="base"
     pagecolor="#ffffff"
     bordercolor="#666666"
     borderopacity="1.0"
     inkscape:pageopacity="0.0"
     inkscape:pageshadow="2"
     inkscape:zoom="15.839192"
     inkscape:cx="6.6206265"
     inkscape:cy="17.337179"
     inkscape:document-units="px"
     inkscape:current-layer="background"
     showgrid="false"
     inkscape:window-width="1440"
     inkscape:window-height="852"
     inkscape:window-x="0"
     inkscape:window-y="0"
     inkscape:window-maximized="1" />
  <metadata
     id="metadata4914">
    <rdf:RDF>
      <cc:Work
         rdf:about="">
        <dc:format>image/svg+xml</dc:format>
        <dc:type
           rdf:resource="http://purl.org/dc/dcmitype/StillImage" />
        <dc:title />
      </cc:Work>
    </rdf:RDF>
  </metadata>
  <g
     inkscape:groupmode="layer"
     id="background"
     inkscape:label="background"
     transform="translate(0,-1000)">
    <rect
       style="fill:#000000;fill-opacity:1;stroke:none"
       id="rect5426"
       width="24"
       height="24"
       x="0"
       y="1000" />
  </g>
  <g
     inkscape:label="icon"
     inkscape:groupmode="layer"
     id="icon"
     transform="translate(0,-1028.3622)">
    <path
       style="opacity:0.8;fill:#ffffff;fill-opacity:0.94117647;stroke:none"
       d="M 2 0 C 0.8954305 0 0 0.8954305 0 2 L 0 15 C 0 16.104569 0.8954305 17 2 17 L 17 17 L 24 24 L 24 16 L 24 2 C 24 0.8954305 23.10457 0 22 0 L 2 0 z M 3 2 L 4 2 L 20 2 L 21 2 C 21.5523 2 22 2.4477 22 3 L 22 4 C 22 4.5523 21.5523 5 21 5 L 20 5 L 4 5 L 3 5 C 2.4477 5 2 4.5523 2 4 L 2 3 C 2 2.4477 2.4477 2 3 2 z M 3 7 L 4 7 L 20 7 L 21 7 C 21.5523 7 22 7.4477 22 8 L 22 9 C 22 9.5523 21.5523 10 21 10 L 20 10 L 4 10 L 3 10 C 2.4477 10 2 9.5523 2 9 L 2 8 C 2 7.4477 2.4477 7 3 7 z M 3 12 L 4 12 L 20 12 L 21 12 C 21.5523 12 22 12.4477 22 13 L 22 14 C 22 14.5523 21.5523 15 21 15 L 20 15 L 4 15 L 3 15 C 2.4477153 15 2 14.5523 2 14 L 2 13 C 2 12.4477 2.4477 12 3 12 z "
       transform="translate(0,1028.3622)"
       id="path2985" />
  </g>
</svg>
