<?xml version="1.0" encoding="UTF-8" standalone="no"?>
<!-- Created with Inkscape (http://www.inkscape.org/) -->

<svg
   xmlns:dc="http://purl.org/dc/elements/1.1/"
   xmlns:cc="http://creativecommons.org/ns#"
   xmlns:rdf="http://www.w3.org/1999/02/22-rdf-syntax-ns#"
   xmlns:svg="http://www.w3.org/2000/svg"
   xmlns="http://www.w3.org/2000/svg"
   xmlns:sodipodi="http://sodipodi.sourceforge.net/DTD/sodipodi-0.dtd"
   xmlns:inkscape="http://www.inkscape.org/namespaces/inkscape"
   width="24"
   height="24"
   id="svg3795"
   version="1.1"
   inkscape:version="0.48.2 r9819"
   sodipodi:docname="ic_action_caution.svg">
  <defs
     id="defs3797" />
  <sodipodi:namedview
     id="base"
     pagecolor="#ffffff"
     bordercolor="#666666"
     borderopacity="1.0"
     inkscape:pageopacity="0.0"
     inkscape:pageshadow="2"
     inkscape:zoom="34.916667"
     inkscape:cx="16.281261"
     inkscape:cy="11.462093"
     inkscape:document-units="px"
     inkscape:current-layer="icon"
     showgrid="true"
     showguides="true"
     inkscape:guide-bbox="true"
     inkscape:window-width="1920"
     inkscape:window-height="1032"
     inkscape:window-x="0"
     inkscape:window-y="0"
     inkscape:window-maximized="1"
     inkscape:snap-global="true">
    <sodipodi:guide
       orientation="0,1"
       position="580,0"
       id="guide4320" />
    <sodipodi:guide
       position="0,0"
       orientation="0,1024"
       id="guide4322" />
    <sodipodi:guide
       position="1024,0"
       orientation="-1024,0"
       id="guide4324" />
    <sodipodi:guide
       position="1024,1024"
       orientation="0,-1024"
       id="guide4326" />
    <sodipodi:guide
       position="0,1024"
       orientation="1024,0"
       id="guide4328" />
    <inkscape:grid
       type="xygrid"
       id="grid3006"
       empspacing="5"
       visible="true"
       enabled="true"
       snapvisiblegridlinesonly="true" />
  </sodipodi:namedview>
  <metadata
     id="metadata3800">
    <rdf:RDF>
      <cc:Work
         rdf:about="">
        <dc:format>image/svg+xml</dc:format>
        <dc:type
           rdf:resource="http://purl.org/dc/dcmitype/StillImage" />
      </cc:Work>
    </rdf:RDF>
  </metadata>
  <g
     inkscape:groupmode="layer"
     id="background"
     inkscape:label="background"
     transform="translate(0,-1000)"
     sodipodi:insensitive="true">
    <rect
       transform="translate(0,-28.3622)"
       style="fill:#000000;fill-opacity:1;stroke:none"
       id="rect4314"
       width="24"
       height="24"
       x="0"
       y="1028.3621" />
  </g>
  <g
     inkscape:label="icon"
     inkscape:groupmode="layer"
     id="icon"
     transform="translate(0,-1028.3622)">
    <path
       style="opacity:0.8;fill:#ffffff;fill-opacity:1;stroke:none"
       d="M 11.75 3.875 C 11.68428 3.885 11.627714 3.9235 11.5625 3.9375 C 11.5324 3.9475 11.49867 3.9275 11.46875 3.9375 C 11.42544 3.9495 11.3862 3.95475 11.34375 3.96875 C 11.218709 4.01175 11.114935 4.08935 11 4.15625 C 10.9051 4.21125 10.804257 4.27275 10.71875 4.34375 C 10.67067 4.38375 10.63732 4.42575 10.59375 4.46875 C 10.55024 4.51275 10.50854 4.54575 10.46875 4.59375 C 10.44921 4.61775 10.42461 4.63225 10.40625 4.65625 C 10.35604 4.72225 10.32389 4.8012 10.28125 4.875 C 10.23899 4.948 10.18891 5.01675 10.15625 5.09375 L 3.375 16.84375 C 3.3663 16.85575 3.352178 16.863 3.34375 16.875 L 3.28125 17 C 3.223542 17.1 3.1650774 17.2031 3.125 17.3125 C 3.101771 17.3755 3.079119 17.4363 3.0625 17.5 C 3.051765 17.542 3.039314 17.582 3.03125 17.625 C 3.006689 17.7534 2.999186 17.8713 3 18 C 3.0005256 18.083 3.020489 18.168 3.03125 18.25 C 3.0406 18.325 3.045206 18.39705 3.0625 18.46875 C 3.06694 18.48775 3.05752 18.51325 3.0625 18.53125 C 3.085938 18.61725 3.122093 18.70045 3.15625 18.78125 C 3.200696 18.88605 3.250384 18.99735 3.3125 19.09375 C 3.32005 19.10575 3.335967 19.114 3.34375 19.125 C 3.363737 19.155 3.3846 19.18975 3.40625 19.21875 C 3.460893 19.29075 3.5301005 19.34255 3.59375 19.40625 C 3.663104 19.47525 3.7317798 19.53415 3.8125 19.59375 C 3.83663 19.61175 3.850051 19.64025 3.875 19.65625 C 3.913486 19.68225 3.959207 19.69575 4 19.71875 C 4.099542 19.77675 4.2030435 19.835 4.3125 19.875 C 4.37512 19.898 4.4362885 19.9215 4.5 19.9375 C 4.531952 19.9475 4.561201 19.96275 4.59375 19.96875 L 4.625 19.96875 C 4.7533699 19.99275 4.8712313 20.001 5 20 C 5.042923 19.9998 5.082304 20 5.125 20 L 19 20 C 19.138868 20.0009 19.268013 19.99975 19.40625 19.96875 C 19.48111 19.95375 19.55344 19.92925 19.625 19.90625 C 19.67543 19.88925 19.731687 19.86475 19.78125 19.84375 C 19.85822 19.81075 19.928316 19.76075 20 19.71875 C 20.04079 19.69475 20.08651 19.68125 20.125 19.65625 C 20.14995 19.63925 20.16337 19.61075 20.1875 19.59375 C 20.26822 19.53375 20.336896 19.47545 20.40625 19.40625 C 20.4699 19.34225 20.539107 19.29045 20.59375 19.21875 C 20.6154 19.18975 20.63626 19.155 20.65625 19.125 C 20.71028 19.045 20.770306 18.9627 20.8125 18.875 C 20.82768 18.844 20.83023 18.81325 20.84375 18.78125 C 20.87791 18.70025 20.91406 18.61695 20.9375 18.53125 C 20.94784 18.49225 20.96072 18.44525 20.96875 18.40625 C 20.98724 18.31625 20.99415 18.2194 21 18.125 C 21.01278 17.9442 21.0063 17.77475 20.96875 17.59375 C 20.95343 17.51875 20.92968 17.4466 20.90625 17.375 C 20.88944 17.325 20.86483 17.26835 20.84375 17.21875 C 20.8112 17.14175 20.76031 17.0717 20.71875 17 L 20.65625 16.875 C 20.64785 16.863 20.6337 16.85575 20.625 16.84375 L 13.84375 5.09375 L 13.71875 4.875 C 13.66149 4.776 13.601888 4.67915 13.53125 4.59375 C 13.49216 4.54675 13.44999 4.51275 13.40625 4.46875 C 13.36257 4.42475 13.32831 4.38275 13.28125 4.34375 C 13.19588 4.27275 13.099169 4.21345 13 4.15625 C 12.885065 4.08925 12.781291 4.01135 12.65625 3.96875 L 12.625 3.96875 C 12.59286 3.95775 12.56366 3.9465 12.53125 3.9375 C 12.50339 3.9275 12.46566 3.9475 12.4375 3.9375 C 12.329646 3.9135 12.233801 3.881 12.125 3.875 C 12.03961 3.865 11.961029 3.875 11.875 3.875 C 11.83199 3.875 11.79297 3.865 11.75 3.875 z M 11 9 L 13 9 L 13 15 L 11 15 L 11 9 z M 12 16 C 12.552285 16 13 16.4477 13 17 C 13 17.5523 12.552285 18 12 18 C 11.447715 18 11 17.5523 11 17 C 11 16.4477 11.447715 16 12 16 z "
       transform="translate(0,1028.3622)"
       id="path3080" />
  </g>
</svg>
