<?xml version="1.0" encoding="UTF-8" standalone="no"?>
<!-- Created with Inkscape (http://www.inkscape.org/) -->

<svg
   xmlns:dc="http://purl.org/dc/elements/1.1/"
   xmlns:cc="http://creativecommons.org/ns#"
   xmlns:rdf="http://www.w3.org/1999/02/22-rdf-syntax-ns#"
   xmlns:svg="http://www.w3.org/2000/svg"
   xmlns="http://www.w3.org/2000/svg"
   xmlns:sodipodi="http://sodipodi.sourceforge.net/DTD/sodipodi-0.dtd"
   xmlns:inkscape="http://www.inkscape.org/namespaces/inkscape"
   width="24"
   height="24"
   id="svg4909"
   version="1.1"
   inkscape:version="0.48.2 r9819"
   sodipodi:docname="ic_action_edit.svg"
   style="enable-background:new">
  <defs
     id="defs4911" />
  <sodipodi:namedview
     id="base"
     pagecolor="#ffffff"
     bordercolor="#666666"
     borderopacity="1.0"
     inkscape:pageopacity="0.0"
     inkscape:pageshadow="2"
     inkscape:zoom="27.58014"
     inkscape:cx="13.105868"
     inkscape:cy="11.99999"
     inkscape:document-units="px"
     inkscape:current-layer="icon"
     showgrid="true"
     inkscape:window-width="1231"
     inkscape:window-height="856"
     inkscape:window-x="0"
     inkscape:window-y="0"
     inkscape:window-maximized="0">
    <inkscape:grid
       type="xygrid"
       id="grid2987" />
  </sodipodi:namedview>
  <metadata
     id="metadata4914">
    <rdf:RDF>
      <cc:Work
         rdf:about="">
        <dc:format>image/svg+xml</dc:format>
        <dc:type
           rdf:resource="http://purl.org/dc/dcmitype/StillImage" />
        <dc:title />
      </cc:Work>
    </rdf:RDF>
  </metadata>
  <g
     inkscape:groupmode="layer"
     id="background"
     inkscape:label="background"
     transform="translate(0,-1000)"
     sodipodi:insensitive="true">
    <rect
       style="fill:#000000;fill-opacity:1;stroke:none;enable-background:new"
       id="rect5426"
       width="24"
       height="24"
       x="-8.8817842e-16"
       y="1028.3623"
       transform="translate(0,-28.3622)" />
  </g>
  <g
     inkscape:label="icon"
     inkscape:groupmode="layer"
     id="icon"
     transform="translate(0,-1028.3622)">
    <g
       id="g3022"
       transform="translate(-2,2)">
      <path
         sodipodi:nodetypes="ccccccc"
         id="rect3792"
         d="m 7.499985,1041.3622 -3.4999478,0 -3.72e-5,7 7.000037,0 -5.2e-5,-3.5 -3.4999479,0 z"
         style="opacity:0.8;fill:#ffffff;fill-opacity:0.94117647;stroke:none"
         inkscape:connector-curvature="0" />
      <path
         style="opacity:0.8;fill:#ffffff;fill-opacity:0.94117647;stroke:none"
         d="m 19.162667,1028.9548 c -0.781037,-0.781 -2.058365,-0.792 -2.839393,-0.011 l -1.414257,1.4142 1.42525,1.4253 4.242676,4.2426 1.403176,1.4031 1.414207,-1.4142 c 0.781092,-0.7812 0.792049,-2.0364 0.01101,-2.8173 z"
         id="path3005"
         inkscape:connector-curvature="0"
         sodipodi:nodetypes="sccccccss" />
      <path
         d="m 14,1031.2687 -9,9.0312 3.53125,0 0,3.5313 3.5625,0 0,3.5 1.90625,-1.9063 0,-14.1562 z m 0,14.156 6.5625,-6.5937 0.5,-0.4688 0.21875,-0.2187 -7.09375,-7.0938 -0.1875,0.2188 0,14.1562 z"
         style="opacity:0.8;fill:#ffffff;fill-opacity:0.94117647;stroke:none"
         id="path3017"
         inkscape:connector-curvature="0" />
    </g>
  </g>
</svg>
