<?xml version="1.0" encoding="UTF-8" standalone="no"?>
<!-- Created with Inkscape (http://www.inkscape.org/) -->

<svg
   xmlns:dc="http://purl.org/dc/elements/1.1/"
   xmlns:cc="http://creativecommons.org/ns#"
   xmlns:rdf="http://www.w3.org/1999/02/22-rdf-syntax-ns#"
   xmlns:svg="http://www.w3.org/2000/svg"
   xmlns="http://www.w3.org/2000/svg"
   xmlns:sodipodi="http://sodipodi.sourceforge.net/DTD/sodipodi-0.dtd"
   xmlns:inkscape="http://www.inkscape.org/namespaces/inkscape"
   width="24"
   height="24"
   id="svg3795"
   version="1.1"
   inkscape:version="0.48.2 r9819"
   sodipodi:docname="ic_action_refresh.svg">
  <defs
     id="defs3797" />
  <sodipodi:namedview
     id="base"
     pagecolor="#ffffff"
     bordercolor="#666666"
     borderopacity="1.0"
     inkscape:pageopacity="0.0"
     inkscape:pageshadow="2"
     inkscape:zoom="17.458334"
     inkscape:cx="10.911695"
     inkscape:cy="12.000139"
     inkscape:document-units="px"
     inkscape:current-layer="icon"
     showgrid="true"
     showguides="true"
     inkscape:guide-bbox="true"
     inkscape:window-width="1920"
     inkscape:window-height="1032"
     inkscape:window-x="0"
     inkscape:window-y="0"
     inkscape:window-maximized="1"
     inkscape:snap-global="true">
    <sodipodi:guide
       orientation="0,1"
       position="580,0"
       id="guide4320" />
    <sodipodi:guide
       position="0,0"
       orientation="0,1024"
       id="guide4322" />
    <sodipodi:guide
       position="1024,0"
       orientation="-1024,0"
       id="guide4324" />
    <sodipodi:guide
       position="1024,1024"
       orientation="0,-1024"
       id="guide4326" />
    <sodipodi:guide
       position="0,1024"
       orientation="1024,0"
       id="guide4328" />
    <inkscape:grid
       type="xygrid"
       id="grid3006"
       empspacing="5"
       visible="true"
       enabled="true"
       snapvisiblegridlinesonly="true" />
  </sodipodi:namedview>
  <metadata
     id="metadata3800">
    <rdf:RDF>
      <cc:Work
         rdf:about="">
        <dc:format>image/svg+xml</dc:format>
        <dc:type
           rdf:resource="http://purl.org/dc/dcmitype/StillImage" />
      </cc:Work>
    </rdf:RDF>
  </metadata>
  <g
     inkscape:groupmode="layer"
     id="background"
     inkscape:label="background"
     transform="translate(0,-1000)"
     sodipodi:insensitive="true">
    <rect
       transform="translate(0,-28.3622)"
       style="fill:#000000;fill-opacity:1;stroke:none"
       id="rect4314"
       width="24"
       height="24"
       x="0"
       y="1028.3621" />
  </g>
  <g
     inkscape:label="icon"
     inkscape:groupmode="layer"
     id="icon"
     transform="translate(0,-1028.3622)">
    <path
       style="opacity:0.8;fill:#ffffff;fill-opacity:1;stroke:none"
       d="M 18.375 1.40625 L 18.34375 4.28125 C 14.415353 1.03715 8.613439 1.2616 4.9375 4.9375 C 2.98486 6.89015 1.9999953 9.440775 2 12 L 4 12 C 3.9999981 9.9526125 4.781645 7.9059 6.34375 6.34375 C 9.0921061 3.59545 13.327727 3.25665 16.4375 5.34375 L 14.46875 5.3125 L 14.46875 7.375 L 20.34375 7.375 L 20.34375 1.40625 L 18.375 1.40625 z M 20.46875 6.71875 C 20.605494 6.93805 20.756853 7.148 20.875 7.375 C 20.757925 7.1508 20.60398 6.93545 20.46875 6.71875 z "
       transform="translate(0,1028.3622)"
       id="path2991" />
    <path
       id="path2995"
       d="m 5.6253,1050.9559 0.031,-2.875 c 3.9284,3.2441 9.7303,3.0197 13.4062,-0.6562 1.9527,-1.9527 2.9376,-4.5033 2.9375,-7.0625 l -2,0 c 10e-5,2.0474 -0.7816,4.0941 -2.3437,5.6562 -2.7484,2.7483 -6.984,3.0871 -10.0938,1 l 1.9688,0.031 0,-2.0625 -5.875,0 0,5.9687 1.9687,0 z m -2.0937,-5.3125 c -0.1367,-0.2193 -0.2881,-0.4292 -0.4063,-0.6562 0.1171,0.2242 0.2711,0.4395 0.4063,0.6562 z"
       style="opacity:0.8;fill:#ffffff;fill-opacity:1;stroke:none"
       inkscape:connector-curvature="0" />
  </g>
</svg>
