<?xml version="1.0" encoding="UTF-8" standalone="no"?>
<!-- Created with Inkscape (http://www.inkscape.org/) -->

<svg
   xmlns:dc="http://purl.org/dc/elements/1.1/"
   xmlns:cc="http://creativecommons.org/ns#"
   xmlns:rdf="http://www.w3.org/1999/02/22-rdf-syntax-ns#"
   xmlns:svg="http://www.w3.org/2000/svg"
   xmlns="http://www.w3.org/2000/svg"
   xmlns:sodipodi="http://sodipodi.sourceforge.net/DTD/sodipodi-0.dtd"
   xmlns:inkscape="http://www.inkscape.org/namespaces/inkscape"
   width="24"
   height="24"
   id="svg3795"
   version="1.1"
   inkscape:version="0.48.2 r9819"
   sodipodi:docname="ic_action_lock.svg">
  <defs
     id="defs3797" />
  <sodipodi:namedview
     id="base"
     pagecolor="#ffffff"
     bordercolor="#666666"
     borderopacity="1.0"
     inkscape:pageopacity="0.0"
     inkscape:pageshadow="2"
     inkscape:zoom="34.916464"
     inkscape:cx="12"
     inkscape:cy="12.00007"
     inkscape:document-units="px"
     inkscape:current-layer="icon"
     showgrid="false"
     showguides="true"
     inkscape:guide-bbox="true"
     inkscape:window-width="1920"
     inkscape:window-height="1032"
     inkscape:window-x="0"
     inkscape:window-y="0"
     inkscape:window-maximized="1">
    <sodipodi:guide
       orientation="0,1"
       position="580,0"
       id="guide4320" />
    <sodipodi:guide
       position="0,0"
       orientation="0,1024"
       id="guide4322" />
    <sodipodi:guide
       position="1024,0"
       orientation="-1024,0"
       id="guide4324" />
    <sodipodi:guide
       position="1024,1024"
       orientation="0,-1024"
       id="guide4326" />
    <sodipodi:guide
       position="0,1024"
       orientation="1024,0"
       id="guide4328" />
  </sodipodi:namedview>
  <metadata
     id="metadata3800">
    <rdf:RDF>
      <cc:Work
         rdf:about="">
        <dc:format>image/svg+xml</dc:format>
        <dc:type
           rdf:resource="http://purl.org/dc/dcmitype/StillImage" />
      </cc:Work>
    </rdf:RDF>
  </metadata>
  <g
     inkscape:groupmode="layer"
     id="background"
     inkscape:label="background"
     transform="translate(0,-1000)"
     sodipodi:insensitive="true">
    <rect
       transform="translate(0,-28.3622)"
       style="fill:#000000;fill-opacity:1;stroke:none"
       id="rect4314"
       width="24"
       height="24"
       x="0"
       y="1028.3621" />
  </g>
  <g
     inkscape:label="icon"
     inkscape:groupmode="layer"
     id="icon"
     transform="translate(0,-1028.3622)">
    <path
       style="opacity:0.8;fill:#ffffff;fill-opacity:1;stroke:none"
       d="M 12 0 C 9.2385775 0 7 2.2386 7 5 L 7 10 L 5 10 C 3.8954304 10 3 10.8954 3 12 L 3 22 C 3 23.1046 3.8954304 24 5 24 L 19 24 C 20.10457 24 21 23.1046 21 22 L 21 12 C 21 10.8954 20.10457 10 19 10 L 17 10 L 17 5 C 17 2.2386 14.761424 0 12 0 z M 12 2 C 13.656854 2 15 3.3432 15 5 L 15 10 L 9 10 L 9 5 C 9 3.3432 10.343146 2 12 2 z M 5 12 L 19 12 L 19 22 L 5 22 L 5 12 z "
       transform="translate(0,1028.3622)"
       id="path3802" />
    <path
       style="opacity:0.8;fill:#ffffff;fill-opacity:1;stroke:none"
       d="m 14,1045.3623 c 0,1.1045 -0.89543,1.9999 -2,1.9999 -1.104569,0 -2,-0.8954 -2,-1.9999 0,-1.1046 0.895431,-2.0001 2,-2.0001 1.10457,0 2,0.8955 2,2.0001 z"
       id="path3826"
       inkscape:connector-curvature="0" />
  </g>
</svg>
