<?xml version="1.0" encoding="UTF-8" standalone="no"?>
<!-- Created with Inkscape (http://www.inkscape.org/) -->

<svg
   xmlns:dc="http://purl.org/dc/elements/1.1/"
   xmlns:cc="http://creativecommons.org/ns#"
   xmlns:rdf="http://www.w3.org/1999/02/22-rdf-syntax-ns#"
   xmlns:svg="http://www.w3.org/2000/svg"
   xmlns="http://www.w3.org/2000/svg"
   xmlns:xlink="http://www.w3.org/1999/xlink"
   xmlns:sodipodi="http://sodipodi.sourceforge.net/DTD/sodipodi-0.dtd"
   xmlns:inkscape="http://www.inkscape.org/namespaces/inkscape"
   width="24"
   height="24"
   id="svg4909"
   version="1.1"
   inkscape:version="0.48.2 r9819"
   sodipodi:docname="ic_action_friend.svg">
  <defs
     id="defs4911" />
  <sodipodi:namedview
     id="base"
     pagecolor="#ffffff"
     bordercolor="#666666"
     borderopacity="1.0"
     inkscape:pageopacity="0.0"
     inkscape:pageshadow="2"
     inkscape:zoom="15.839192"
     inkscape:cx="9.7222618"
     inkscape:cy="21.053398"
     inkscape:document-units="px"
     inkscape:current-layer="icon"
     showgrid="false"
     inkscape:window-width="1146"
     inkscape:window-height="891"
     inkscape:window-x="45"
     inkscape:window-y="0"
     inkscape:window-maximized="0" />
  <metadata
     id="metadata4914">
    <rdf:RDF>
      <cc:Work
         rdf:about="">
        <dc:format>image/svg+xml</dc:format>
        <dc:type
           rdf:resource="http://purl.org/dc/dcmitype/StillImage" />
        <dc:title />
      </cc:Work>
    </rdf:RDF>
  </metadata>
  <g
     inkscape:groupmode="layer"
     id="background"
     inkscape:label="background"
     transform="translate(0,-1000)">
    <rect
       style="fill:#000000;fill-opacity:1;stroke:none"
       id="rect5426"
       width="24"
       height="24"
       x="0"
       y="1000" />
  </g>
  <g
     inkscape:label="icon"
     inkscape:groupmode="layer"
     id="icon"
     transform="translate(0,-1028.3622)">
    <path
       sodipodi:type="inkscape:offset"
       inkscape:radius="0"
       inkscape:original="M 11.875 0 C 9.2613 0 7.125 2.75825 7.125 6.15625 C 7.125 8.49495 8.82905 10.2284 9.25 12.4375 C 9.3048 12.7249 9.28285 13.087 9.28125 13.5 C 9.26935 16.6419 -1.1842379e-15 15.6986 0 18.75 L 0 19.84375 C -0.0138 19.94275 6.9388939e-18 20.05315 0 20.15625 L 0 21.09375 C 0 22.29235 0.96078 24 2.15625 24 L 21.46875 24 C 22.65975 24 23.99006 22.22615 24 21.09375 C 24.0003 21.07075 24 19.5108 24 18.75 C 24 15.7001 14.87307 16.67125 14.75 13.53125 C 14.7378 13.21975 14.73075 12.6739 14.78125 12.375 C 15.15058 10.2044 16.59375 8.33445 16.59375 6.15625 C 16.59375 2.75825 14.4887 0 11.875 0 z M 11.875 1.96875 C 12.491655 1.96875 13.096529 2.2688 13.65625 3 C 14.215971 3.7312 14.625 4.86255 14.625 6.15625 C 14.625 7.46785 13.323596 9.21115 12.84375 12.03125 A 1.9622333 1.9622333 0 0 0 12.84375 12.0625 C 12.72289 12.7778 12.7667 13.22215 12.78125 13.59375 C 12.815295 14.46235 13.232371 15.3206 13.75 15.875 C 14.267629 16.4294 14.855818 16.76595 15.4375 17.03125 C 16.600864 17.56195 17.818163 17.82775 18.96875 18.09375 C 20.119337 18.35965 21.185607 18.6204 21.75 18.875 C 21.94676 18.9642 21.97962 18.99425 22.03125 19.03125 C 22.03127 19.39125 22.03122 19.7951 22.03125 20.1875 C 22.031269 20.4314 22.031264 20.6514 22.03125 20.8125 C 22.031236 20.9735 22.02745 21.3502 22.03125 21.0625 C 22.032946 20.8694 21.915086 21.40495 21.65625 21.71875 C 21.46212 21.95305 21.251328 22.016606 21.3125 22.03125 L 2.375 22.03125 C 2.3581416 22.019413 2.3184527 22.00761 2.25 21.90625 C 2.0788682 21.65295 1.96875 21.16875 1.96875 21.09375 L 1.96875 20.15625 C 1.96875 20.0173 1.9717426 19.94505 1.96875 19.9375 A 1.9622333 1.9622333 0 0 0 1.96875 19.84375 L 1.96875 19.0625 C 2.022577 19.0235 2.0448157 18.967 2.25 18.875 C 2.8294902 18.6151 3.9314785 18.3323 5.09375 18.0625 C 6.2560215 17.7927 7.4903706 17.5371 8.65625 17 C 9.2391897 16.7315 9.8281345 16.3813 10.34375 15.8125 C 10.859365 15.2437 11.2467 14.3753 11.25 13.5 C 11.25135 13.1521 11.317146 12.7424 11.1875 12.0625 C 10.903564 10.5724 10.26347 9.4439 9.8125 8.5 C 9.3615301 7.5561 9.09375 6.84915 9.09375 6.15625 C 9.09375 4.86845 9.4960072 3.7333 10.0625 3 C 10.628993 2.2667 11.25832 1.96875 11.875 1.96875 z "
       xlink:href="#path3758"
       style="opacity:0.8;fill:#ffffff;fill-opacity:0.94117647;stroke:none"
       id="path3755"
       inkscape:href="#path3758"
       d="m 11.875,0 c -2.6137,0 -4.75,2.75825 -4.75,6.15625 0,2.3387 1.70405,4.07215 2.125,6.28125 C 9.3048,12.7249 9.28285,13.087 9.28125,13.5 9.26935,16.6419 0,15.6986 0,18.75 l 0,1.09375 c -0.0138,0.099 0,0.2094 0,0.3125 l 0,0.9375 C 0,22.29235 0.96078,24 2.15625,24 l 19.3125,0 c 1.191,0 2.52131,-1.77385 2.53125,-2.90625 3e-4,-0.023 0,-1.58295 0,-2.34375 0,-3.0499 -9.12693,-2.07875 -9.25,-5.21875 -0.0122,-0.3115 -0.01925,-0.85735 0.03125,-1.15625 0.36933,-2.1706 1.8125,-4.04055 1.8125,-6.21875 C 16.59375,2.75825 14.4887,0 11.875,0 z" />
    <path
       style="opacity:0.8;fill:#ffffff;fill-opacity:0.94117647;stroke:none"
       d="M 11.875 0 C 9.2613 0 7.125 2.75825 7.125 6.15625 C 7.125 8.49495 8.82905 10.2284 9.25 12.4375 C 9.3048 12.7249 9.28285 13.087 9.28125 13.5 C 9.26935 16.6419 -1.1842379e-15 15.6986 0 18.75 L 0 19.84375 C -0.0138 19.94275 2.3129646e-18 20.05315 0 20.15625 L 0 21.09375 C 0 22.29235 0.96078 24 2.15625 24 L 21.46875 24 C 22.65975 24 23.99006 22.22615 24 21.09375 C 24.0003 21.07075 24 19.5108 24 18.75 C 24 15.7001 14.87307 16.67125 14.75 13.53125 C 14.7378 13.21975 14.73075 12.6739 14.78125 12.375 C 15.15058 10.2044 16.59375 8.33445 16.59375 6.15625 C 16.59375 2.75825 14.4887 0 11.875 0 z M 11.875 1.96875 C 12.491655 1.96875 13.096529 2.2688 13.65625 3 C 14.215971 3.7312 14.625 4.86255 14.625 6.15625 C 14.625 7.46785 13.323596 9.21115 12.84375 12.03125 A 1.9622333 1.9622333 0 0 0 12.84375 12.0625 C 12.72289 12.7778 12.7667 13.22215 12.78125 13.59375 C 12.815295 14.46235 13.232371 15.3206 13.75 15.875 C 14.267629 16.4294 14.855818 16.76595 15.4375 17.03125 C 16.600864 17.56195 17.818163 17.82775 18.96875 18.09375 C 20.119337 18.35965 21.185607 18.6204 21.75 18.875 C 21.94676 18.9642 21.97962 18.99425 22.03125 19.03125 C 22.03127 19.39125 22.03122 19.7951 22.03125 20.1875 C 22.031269 20.4314 22.031264 20.6514 22.03125 20.8125 C 22.031236 20.9735 22.02745 21.3502 22.03125 21.0625 C 22.032946 20.8694 21.915086 21.40495 21.65625 21.71875 C 21.46212 21.95305 21.251328 22.016606 21.3125 22.03125 L 2.375 22.03125 C 2.4002876 22.049005 2.3581535 22.03125 2.15625 22.03125 L 2.375 22.03125 C 2.3581416 22.019413 2.3184527 22.00761 2.25 21.90625 C 2.0788682 21.65295 1.96875 21.16875 1.96875 21.09375 L 1.96875 20.15625 C 1.96875 20.0173 1.9717426 19.94505 1.96875 19.9375 A 1.9622333 1.9622333 0 0 0 1.96875 19.84375 L 1.96875 19.0625 C 2.022577 19.0235 2.0448157 18.967 2.25 18.875 C 2.8294902 18.6151 3.9314785 18.3323 5.09375 18.0625 C 6.2560215 17.7927 7.4903706 17.5371 8.65625 17 C 9.2391897 16.7315 9.8281345 16.3813 10.34375 15.8125 C 10.859365 15.2437 11.2467 14.3753 11.25 13.5 C 11.25135 13.1521 11.317146 12.7424 11.1875 12.0625 C 10.903564 10.5724 10.26347 9.4439 9.8125 8.5 C 9.3615301 7.5561 9.09375 6.84915 9.09375 6.15625 C 9.09375 4.86845 9.4960072 3.7333 10.0625 3 C 10.628993 2.2667 11.25832 1.96875 11.875 1.96875 z "
       transform="translate(0,1028.3622)"
       id="path3758" />
  </g>
</svg>
