<?xml version="1.0" encoding="UTF-8" standalone="no"?>
<!-- Created with Inkscape (http://www.inkscape.org/) -->

<svg
   xmlns:dc="http://purl.org/dc/elements/1.1/"
   xmlns:cc="http://creativecommons.org/ns#"
   xmlns:rdf="http://www.w3.org/1999/02/22-rdf-syntax-ns#"
   xmlns:svg="http://www.w3.org/2000/svg"
   xmlns="http://www.w3.org/2000/svg"
   xmlns:sodipodi="http://sodipodi.sourceforge.net/DTD/sodipodi-0.dtd"
   xmlns:inkscape="http://www.inkscape.org/namespaces/inkscape"
   width="24"
   height="24"
   id="svg3795"
   version="1.1"
   inkscape:version="0.48.2 r9819"
   sodipodi:docname="ic_action_settings3.svg">
  <defs
     id="defs3797" />
  <sodipodi:namedview
     id="base"
     pagecolor="#ffffff"
     bordercolor="#666666"
     borderopacity="1.0"
     inkscape:pageopacity="0.0"
     inkscape:pageshadow="2"
     inkscape:zoom="34.916464"
     inkscape:cx="12.00007"
     inkscape:cy="12.000209"
     inkscape:document-units="px"
     inkscape:current-layer="icon"
     showgrid="true"
     showguides="true"
     inkscape:guide-bbox="true"
     inkscape:window-width="1920"
     inkscape:window-height="1032"
     inkscape:window-x="0"
     inkscape:window-y="0"
     inkscape:window-maximized="1">
    <sodipodi:guide
       orientation="0,1"
       position="580,0"
       id="guide4320" />
    <sodipodi:guide
       position="0,0"
       orientation="0,1024"
       id="guide4322" />
    <sodipodi:guide
       position="1024,0"
       orientation="-1024,0"
       id="guide4324" />
    <sodipodi:guide
       position="1024,1024"
       orientation="0,-1024"
       id="guide4326" />
    <sodipodi:guide
       position="0,1024"
       orientation="1024,0"
       id="guide4328" />
    <inkscape:grid
       type="xygrid"
       id="grid2990" />
  </sodipodi:namedview>
  <metadata
     id="metadata3800">
    <rdf:RDF>
      <cc:Work
         rdf:about="">
        <dc:format>image/svg+xml</dc:format>
        <dc:type
           rdf:resource="http://purl.org/dc/dcmitype/StillImage" />
      </cc:Work>
    </rdf:RDF>
  </metadata>
  <g
     inkscape:groupmode="layer"
     id="background"
     inkscape:label="background"
     transform="translate(0,-1000)"
     sodipodi:insensitive="true">
    <rect
       transform="translate(0,-28.3622)"
       style="fill:#000000;fill-opacity:1;stroke:none"
       id="rect4314"
       width="24"
       height="24"
       x="0"
       y="1028.3621" />
  </g>
  <g
     inkscape:label="icon"
     inkscape:groupmode="layer"
     id="icon"
     transform="translate(0,-1028.3622)">
    <path
       style="opacity:0.8;fill:#ffffff;fill-opacity:1;stroke:none"
       d="M 10 1 L 9.8125 3.28125 C 8.153922 3.6954034 6.6819471 4.5590142 5.53125 5.75 L 3.46875 4.78125 L 1.46875 8.21875 L 3.34375 9.53125 C 3.1216908 10.313752 3 11.146331 3 12 C 3 12.853669 3.1216908 13.686248 3.34375 14.46875 L 1.46875 15.78125 L 3.46875 19.21875 L 5.53125 18.25 C 6.6819471 19.440986 8.153922 20.304597 9.8125 20.71875 L 10 23 L 14 23 L 14.1875 20.71875 C 15.846078 20.304597 17.318053 19.440986 18.46875 18.25 L 20.53125 19.21875 L 22.53125 15.78125 L 20.65625 14.46875 C 20.878309 13.686248 21 12.853669 21 12 C 21 11.146331 20.878309 10.313752 20.65625 9.53125 L 22.53125 8.21875 L 20.53125 4.78125 L 18.46875 5.75 C 17.318053 4.5590142 15.846078 3.6954034 14.1875 3.28125 L 14 1 L 10 1 z M 12 7 C 14.761424 7 17 9.2386 17 12 C 17 14.7614 14.761424 17 12 17 C 9.2385764 17 7 14.7614 7 12 C 7 9.2386 9.2385764 7 12 7 z "
       transform="translate(0,1028.3622)"
       id="rect2991" />
  </g>
</svg>
