<?xml version="1.0" encoding="UTF-8" standalone="no"?>
<!-- Created with Inkscape (http://www.inkscape.org/) -->

<svg
   xmlns:dc="http://purl.org/dc/elements/1.1/"
   xmlns:cc="http://creativecommons.org/ns#"
   xmlns:rdf="http://www.w3.org/1999/02/22-rdf-syntax-ns#"
   xmlns:svg="http://www.w3.org/2000/svg"
   xmlns="http://www.w3.org/2000/svg"
   xmlns:sodipodi="http://sodipodi.sourceforge.net/DTD/sodipodi-0.dtd"
   xmlns:inkscape="http://www.inkscape.org/namespaces/inkscape"
   width="24"
   height="24"
   id="svg4329"
   version="1.1"
   inkscape:version="0.48.2 r9819"
   sodipodi:docname="ic_action_fullscreen.svg">
  <defs
     id="defs4331" />
  <sodipodi:namedview
     id="base"
     pagecolor="#ffffff"
     bordercolor="#666666"
     borderopacity="1.0"
     inkscape:pageopacity="0.0"
     inkscape:pageshadow="2"
     inkscape:zoom="11.313708"
     inkscape:cx="-1.1838433"
     inkscape:cy="11.715729"
     inkscape:document-units="px"
     inkscape:current-layer="icon"
     showgrid="false"
     inkscape:window-width="1440"
     inkscape:window-height="852"
     inkscape:window-x="0"
     inkscape:window-y="0"
     inkscape:window-maximized="1" />
  <metadata
     id="metadata4334">
    <rdf:RDF>
      <cc:Work
         rdf:about="">
        <dc:format>image/svg+xml</dc:format>
        <dc:type
           rdf:resource="http://purl.org/dc/dcmitype/StillImage" />
        <dc:title />
      </cc:Work>
    </rdf:RDF>
  </metadata>
  <g
     inkscape:label="background"
     inkscape:groupmode="layer"
     id="background"
     transform="translate(0,-1028.3622)">
    <rect
       transform="translate(0,28.3622)"
       style="fill:#000000;fill-opacity:1;stroke:none"
       id="rect4892"
       width="24"
       height="24"
       x="0"
       y="1000" />
  </g>
  <g
     inkscape:groupmode="layer"
     id="icon"
     inkscape:label="icon"
     transform="translate(0,-1000)">
    <g
       id="g2986"
       transform="matrix(1.3333333,0,0,1.3333333,-3.9999996,-337.3333)">
      <path
         inkscape:connector-curvature="0"
         id="rect4878"
         d="m 21,1003 0,1.5 0,6.9375 -1.5,0 0,-5.877 -5.791992,5.792 -1.060547,-1.0605 5.791992,-5.792 -5.876953,0 0,-1.5 6.9375,0 0.439453,0 L 21,1003 z"
         style="opacity:0.8;fill:#ffffff;fill-opacity:1;stroke:none" />
      <path
         inkscape:connector-curvature="0"
         id="rect4880"
         d="m 4.5,1012.5625 0,5.877 5.791992,-5.792 1.060547,1.0605 -5.7919921,5.792 5.8769531,0 0,1.5 -6.9375,0 -1.5,0 0,-1.0605 0,-0.4395 0,-6.9375 1.5,0 z"
         style="opacity:0.8;fill:#ffffff;fill-opacity:1;stroke:none" />
    </g>
  </g>
</svg>
