<?xml version="1.0" encoding="UTF-8" standalone="no"?>
<!-- Created with Inkscape (http://www.inkscape.org/) -->

<svg
   xmlns:dc="http://purl.org/dc/elements/1.1/"
   xmlns:cc="http://creativecommons.org/ns#"
   xmlns:rdf="http://www.w3.org/1999/02/22-rdf-syntax-ns#"
   xmlns:svg="http://www.w3.org/2000/svg"
   xmlns="http://www.w3.org/2000/svg"
   xmlns:sodipodi="http://sodipodi.sourceforge.net/DTD/sodipodi-0.dtd"
   xmlns:inkscape="http://www.inkscape.org/namespaces/inkscape"
   width="24"
   height="24"
   id="svg3795"
   version="1.1"
   inkscape:version="0.48.2 r9819"
   sodipodi:docname="ic_action_settings.svg">
  <defs
     id="defs3797" />
  <sodipodi:namedview
     id="base"
     pagecolor="#ffffff"
     bordercolor="#666666"
     borderopacity="1.0"
     inkscape:pageopacity="0.0"
     inkscape:pageshadow="2"
     inkscape:zoom="15.839192"
     inkscape:cx="19.358086"
     inkscape:cy="7.3475832"
     inkscape:document-units="px"
     inkscape:current-layer="icon"
     showgrid="false"
     showguides="true"
     inkscape:guide-bbox="true"
     inkscape:window-width="1440"
     inkscape:window-height="852"
     inkscape:window-x="0"
     inkscape:window-y="0"
     inkscape:window-maximized="1">
    <sodipodi:guide
       orientation="0,1"
       position="580,0"
       id="guide4320" />
    <sodipodi:guide
       position="0,0"
       orientation="0,1024"
       id="guide4322" />
    <sodipodi:guide
       position="1024,0"
       orientation="-1024,0"
       id="guide4324" />
    <sodipodi:guide
       position="1024,1024"
       orientation="0,-1024"
       id="guide4326" />
    <sodipodi:guide
       position="0,1024"
       orientation="1024,0"
       id="guide4328" />
  </sodipodi:namedview>
  <metadata
     id="metadata3800">
    <rdf:RDF>
      <cc:Work
         rdf:about="">
        <dc:format>image/svg+xml</dc:format>
        <dc:type
           rdf:resource="http://purl.org/dc/dcmitype/StillImage" />
      </cc:Work>
    </rdf:RDF>
  </metadata>
  <g
     inkscape:groupmode="layer"
     id="background"
     inkscape:label="background"
     transform="translate(0,-1000)"
     sodipodi:insensitive="true">
    <rect
       transform="translate(0,-28.3622)"
       style="fill:#000000;fill-opacity:1;stroke:none"
       id="rect4314"
       width="24"
       height="24"
       x="0"
       y="1028.3621" />
  </g>
  <g
     inkscape:label="icon"
     inkscape:groupmode="layer"
     id="icon"
     transform="translate(0,-1028.3622)">
    <path
       inkscape:connector-curvature="0"
       style="opacity:0.8;fill:#ffffff;fill-opacity:0.94117647;stroke:none"
       d="m 10.097252,1028.3622 0,2.6767 c -2.0587894,0.4179 -3.875565,1.5012 -5.2176934,3.0149 l -2.3208327,-1.3398 -1.90274845,3.2955 2.31804565,1.3379 c -0.3163605,0.9474 -0.4877651,1.9609 -0.4877651,3.0148 0,1.0539 0.1714046,2.0674 0.4877651,3.0148 l -2.31804565,1.3379 1.90274845,3.2955 2.3208327,-1.3398 c 1.3421284,1.5137 3.158904,2.597 5.2176934,3.0149 l 0,2.6767 3.805497,0 0,-2.6767 c 2.058789,-0.4179 3.875565,-1.5012 5.217692,-3.0149 l 2.320833,1.3398 1.902749,-3.2955 -2.318045,-1.3379 c 0.31636,-0.9474 0.487765,-1.9609 0.487765,-3.0148 0,-1.0539 -0.171405,-2.0674 -0.487765,-3.0148 l 2.318045,-1.3379 -1.902749,-3.2955 -2.320833,1.3398 c -1.342127,-1.5137 -3.158903,-2.597 -5.217692,-3.0149 l 0,-2.6767 -3.805497,0 z M 12,1032.7512 c 4.203437,0 7.610994,3.4076 7.610994,7.611 0,4.2034 -3.407557,7.611 -7.610994,7.611 -4.2034354,0 -7.6109936,-3.4076 -7.6109936,-7.611 0,-4.2034 3.4075582,-7.611 7.6109936,-7.611 z"
       id="path4318" />
  </g>
</svg>
