<?xml version="1.0" encoding="UTF-8" standalone="no"?>
<!-- Created with Inkscape (http://www.inkscape.org/) -->

<svg
   xmlns:dc="http://purl.org/dc/elements/1.1/"
   xmlns:cc="http://creativecommons.org/ns#"
   xmlns:rdf="http://www.w3.org/1999/02/22-rdf-syntax-ns#"
   xmlns:svg="http://www.w3.org/2000/svg"
   xmlns="http://www.w3.org/2000/svg"
   xmlns:sodipodi="http://sodipodi.sourceforge.net/DTD/sodipodi-0.dtd"
   xmlns:inkscape="http://www.inkscape.org/namespaces/inkscape"
   width="24"
   height="24"
   id="svg2"
   version="1.1"
   inkscape:version="0.48.2 r9819"
   sodipodi:docname="ic_action_help2.svg">
  <defs
     id="defs4" />
  <sodipodi:namedview
     id="base"
     pagecolor="#ffffff"
     bordercolor="#666666"
     borderopacity="1.0"
     inkscape:pageopacity="0.0"
     inkscape:pageshadow="2"
     inkscape:zoom="34.91664"
     inkscape:cx="12"
     inkscape:cy="11.999991"
     inkscape:document-units="px"
     inkscape:current-layer="icon"
     showgrid="true"
     inkscape:window-width="1920"
     inkscape:window-height="1032"
     inkscape:window-x="0"
     inkscape:window-y="0"
     inkscape:window-maximized="1">
    <inkscape:grid
       type="xygrid"
       id="grid3756" />
  </sodipodi:namedview>
  <metadata
     id="metadata7">
    <rdf:RDF>
      <cc:Work
         rdf:about="">
        <dc:format>image/svg+xml</dc:format>
        <dc:type
           rdf:resource="http://purl.org/dc/dcmitype/StillImage" />
      </cc:Work>
    </rdf:RDF>
  </metadata>
  <g
     inkscape:groupmode="layer"
     id="background"
     inkscape:label="Background"
     transform="translate(0,-1000)">
    <path
       style="fill:#000000;fill-opacity:1;stroke:none"
       d="m 0,1000 0,24 24,0 0,-24 -24,0 z"
       id="rect3758"
       inkscape:connector-curvature="0" />
  </g>
  <g
     inkscape:label="icon"
     inkscape:groupmode="layer"
     id="icon"
     transform="translate(0,-1028.3622)">
    <path
       style="opacity:0.8;fill:#ffffff;fill-opacity:1;stroke:none"
       d="M 12 2 C 6.4771525 2 2 6.4772 2 12 C 2 17.5228 6.4771525 22 12 22 C 17.522847 22 22 17.5228 22 12 C 22 6.4772 17.522847 2 12 2 z M 12.125 7 C 13.099732 7 13.900844 7.2182 14.5 7.625 C 15.313764 8.175 15.718742 8.8959 15.71875 9.8125 C 15.718742 10.1926 15.585141 10.55305 15.375 10.90625 C 15.164843 11.25955 14.742077 11.70905 14.09375 12.21875 C 13.642145 12.57645 13.370718 12.8434 13.25 13.0625 C 13.133741 13.2771 13.062495 13.55755 13.0625 13.90625 L 10.53125 13.90625 L 10.53125 13.65625 C 10.531247 13.22255 10.557878 12.86205 10.65625 12.59375 C 10.75462 12.32105 10.901482 12.0986 11.09375 11.875 C 11.290482 11.6515 11.726613 11.2509 12.40625 10.6875 C 12.768418 10.3924 12.968746 10.1209 12.96875 9.875 C 12.968746 9.6291 12.897547 9.4466 12.75 9.3125 C 12.606914 9.1739 12.38885 9.09375 12.09375 9.09375 C 11.776286 9.09375 11.491397 9.19615 11.28125 9.40625 C 11.075569 9.61645 10.964373 9.9769 10.90625 10.5 L 8.28125 10.1875 C 8.370676 9.2307 8.7401278 8.4563 9.34375 7.875 C 9.9518412 7.2893 10.873041 7 12.125 7 z M 10.4375 14.59375 L 13.15625 14.59375 L 13.15625 17 L 10.4375 17 L 10.4375 14.59375 z "
       transform="translate(0,1028.3622)"
       id="path3761" />
  </g>
</svg>
