<?xml version="1.0" encoding="UTF-8" standalone="no"?>
<!-- Created with Inkscape (http://www.inkscape.org/) -->

<svg
   xmlns:dc="http://purl.org/dc/elements/1.1/"
   xmlns:cc="http://creativecommons.org/ns#"
   xmlns:rdf="http://www.w3.org/1999/02/22-rdf-syntax-ns#"
   xmlns:svg="http://www.w3.org/2000/svg"
   xmlns="http://www.w3.org/2000/svg"
   xmlns:sodipodi="http://sodipodi.sourceforge.net/DTD/sodipodi-0.dtd"
   xmlns:inkscape="http://www.inkscape.org/namespaces/inkscape"
   width="24"
   height="24"
   id="svg4329"
   version="1.1"
   inkscape:version="0.48.2 r9819"
   sodipodi:docname="ic_action_fullscreen.svg">
  <defs
     id="defs4331" />
  <sodipodi:namedview
     id="base"
     pagecolor="#ffffff"
     bordercolor="#666666"
     borderopacity="1.0"
     inkscape:pageopacity="0.0"
     inkscape:pageshadow="2"
     inkscape:zoom="34.916667"
     inkscape:cx="7.3174224"
     inkscape:cy="12"
     inkscape:document-units="px"
     inkscape:current-layer="icon"
     showgrid="true"
     inkscape:window-width="1920"
     inkscape:window-height="1032"
     inkscape:window-x="0"
     inkscape:window-y="0"
     inkscape:window-maximized="1"
     inkscape:snap-global="false"
     showguides="false">
    <inkscape:grid
       type="xygrid"
       id="grid2987" />
  </sodipodi:namedview>
  <metadata
     id="metadata4334">
    <rdf:RDF>
      <cc:Work
         rdf:about="">
        <dc:format>image/svg+xml</dc:format>
        <dc:type
           rdf:resource="http://purl.org/dc/dcmitype/StillImage" />
        <dc:title />
      </cc:Work>
    </rdf:RDF>
  </metadata>
  <g
     inkscape:label="background"
     inkscape:groupmode="layer"
     id="background"
     transform="translate(0,-1028.3622)">
    <rect
       transform="translate(0,28.3622)"
       style="fill:#000000;fill-opacity:1;stroke:none"
       id="rect4892"
       width="24"
       height="24"
       x="0"
       y="1000" />
  </g>
  <g
     inkscape:groupmode="layer"
     id="icon"
     inkscape:label="icon"
     transform="translate(0,-1000)">
    <path
       style="opacity:0.8;fill:#ffffff;fill-opacity:1;stroke:none"
       d="M 13 2 L 13 4 L 18.59375 4 L 12.8125 9.8125 L 14.1875 11.1875 L 20 5.40625 L 20 11 L 22 11 L 22 4 L 22 2 L 20.59375 2 L 20 2 L 13 2 z "
       transform="translate(0,1000)"
       id="rect4878" />
    <path
       style="opacity:0.8;fill:#ffffff;fill-opacity:1;stroke:none"
       d="M 9.8125 12.8125 L 4 18.59375 L 4 13 L 2 13 L 2 20 L 2 20.59375 L 2 22 L 4 22 L 11 22 L 11 20 L 5.40625 20 L 11.1875 14.1875 L 9.8125 12.8125 z "
       transform="translate(0,1000)"
       id="rect4880" />
  </g>
</svg>
