<?xml version="1.0" encoding="UTF-8" standalone="no"?>
<!-- Created with Inkscape (http://www.inkscape.org/) -->

<svg
   xmlns:dc="http://purl.org/dc/elements/1.1/"
   xmlns:cc="http://creativecommons.org/ns#"
   xmlns:rdf="http://www.w3.org/1999/02/22-rdf-syntax-ns#"
   xmlns:svg="http://www.w3.org/2000/svg"
   xmlns="http://www.w3.org/2000/svg"
   xmlns:sodipodi="http://sodipodi.sourceforge.net/DTD/sodipodi-0.dtd"
   xmlns:inkscape="http://www.inkscape.org/namespaces/inkscape"
   width="1024"
   height="1024"
   id="svg4909"
   version="1.1"
   inkscape:version="0.48.2 r9819"
   sodipodi:docname="ic_action_friend.svg">
  <defs
     id="defs4911" />
  <sodipodi:namedview
     id="base"
     pagecolor="#ffffff"
     bordercolor="#666666"
     borderopacity="1.0"
     inkscape:pageopacity="0.0"
     inkscape:pageshadow="2"
     inkscape:zoom="0.9899495"
     inkscape:cx="417.8977"
     inkscape:cy="549.67739"
     inkscape:document-units="px"
     inkscape:current-layer="icon"
     showgrid="false"
     inkscape:window-width="1440"
     inkscape:window-height="852"
     inkscape:window-x="0"
     inkscape:window-y="0"
     inkscape:window-maximized="1" />
  <metadata
     id="metadata4914">
    <rdf:RDF>
      <cc:Work
         rdf:about="">
        <dc:format>image/svg+xml</dc:format>
        <dc:type
           rdf:resource="http://purl.org/dc/dcmitype/StillImage" />
        <dc:title />
      </cc:Work>
    </rdf:RDF>
  </metadata>
  <g
     inkscape:groupmode="layer"
     id="background"
     inkscape:label="background">
    <rect
       style="opacity:1;fill:#000000;fill-opacity:1;stroke:none"
       id="rect5426"
       width="640"
       height="640"
       x="192"
       y="192" />
  </g>
  <g
     inkscape:label="icon"
     inkscape:groupmode="layer"
     id="icon"
     transform="translate(0,-28.362183)">
    <path
       style="opacity:0.8;fill:#ffffff;fill-opacity:0.94117647;stroke:none"
       d="M 508.03125 192 C 438.33259 192 381.84375 265.48077 381.84375 356.09375 C 381.84375 418.45744 426.77455 464.40118 438 523.3125 C 439.46039 530.97662 439.3542 541.39087 439.3125 552.40625 C 438.99534 636.18786 192 610.78637 192 692.15625 L 192 721.1875 C 191.63257 723.83225 191.4375 726.50062 191.4375 729.25 L 191.4375 754.3125 C 191.4375 786.27451 217.08945 832 248.96875 832 L 763.875 832 C 795.63523 832 831.17252 784.85236 831.4375 754.65625 L 831.4375 754.3125 C 831.44558 753.70794 832 712.44461 832 692.15625 C 832 610.82706 588.09421 636.17161 584.8125 552.4375 C 584.48689 544.12954 584.6435 530.22248 586 522.25 C 595.84858 464.36748 634.25 414.18002 634.25 356.09375 C 634.25 265.48077 577.72991 192 508.03125 192 z M 508.03125 255.375 C 520.61367 255.375 533.69052 261.37934 547.03125 278.71875 C 560.37198 296.05816 570.875 323.93578 570.875 356.0625 C 570.875 386.21051 536.90208 432.85769 523.5 511.625 C 520.23873 530.79229 521.00382 543.01236 521.46875 554.875 C 522.48307 580.75587 534.78596 606.04487 550.03125 622.375 C 565.27654 638.70513 582.09985 648.30653 598.4375 655.78125 C 631.11279 670.73069 664.49148 677.73877 695.25 684.90625 C 719.35721 690.19266 756.0844 700.70158 762.78125 705.96875 C 770.88128 712.97248 768.7098 738.41927 768.0625 754.3125 C 768.04528 762.94016 763.00455 768.89448 754.9375 768.625 C 754.9375 768.625 274.0778 768.51142 266.5625 768.625 C 260.3904 768.71828 254.8724 761.89203 254.8125 754.3125 C 254.7475 746.08359 254.8125 729.625 254.8125 729.625 C 254.8125 729.625 254.55545 714.76215 261.15625 706.71875 C 267.80195 699.47169 298.85708 692.10958 329.84375 684.9375 C 360.83042 677.76542 394.28058 670.78765 427.03125 655.71875 C 443.40659 648.1843 460.3384 638.48074 475.5625 621.6875 C 490.7866 604.89426 502.5889 578.67654 502.6875 552.625 C 502.72823 541.86621 503.81785 529.99756 500.28125 511.4375 C 492.32526 469.68437 474.74425 438.58489 463 413.8125 C 451.25575 389.04011 445.21875 372.02108 445.21875 356.0625 C 445.21875 323.9285 455.72833 296.02431 469.0625 278.6875 C 482.39667 261.35069 495.44883 255.375 508.03125 255.375 z "
       transform="translate(0,28.362183)"
       id="path3758" />
  </g>
</svg>
