<?xml version="1.0" encoding="UTF-8" standalone="no"?>
<!-- Created with Inkscape (http://www.inkscape.org/) -->

<svg
   xmlns:dc="http://purl.org/dc/elements/1.1/"
   xmlns:cc="http://creativecommons.org/ns#"
   xmlns:rdf="http://www.w3.org/1999/02/22-rdf-syntax-ns#"
   xmlns:svg="http://www.w3.org/2000/svg"
   xmlns="http://www.w3.org/2000/svg"
   xmlns:sodipodi="http://sodipodi.sourceforge.net/DTD/sodipodi-0.dtd"
   xmlns:inkscape="http://www.inkscape.org/namespaces/inkscape"
   width="1024"
   height="1024"
   id="svg2"
   version="1.1"
   inkscape:version="0.48.2 r9819"
   sodipodi:docname="ic_action_help.svg">
  <defs
     id="defs4" />
  <sodipodi:namedview
     id="base"
     pagecolor="#ffffff"
     bordercolor="#666666"
     borderopacity="1.0"
     inkscape:pageopacity="0.0"
     inkscape:pageshadow="2"
     inkscape:zoom="0.11313709"
     inkscape:cx="761.6748"
     inkscape:cy="406.08926"
     inkscape:document-units="px"
     inkscape:current-layer="icon"
     showgrid="false"
     inkscape:window-width="1440"
     inkscape:window-height="852"
     inkscape:window-x="0"
     inkscape:window-y="0"
     inkscape:window-maximized="1" />
  <metadata
     id="metadata7">
    <rdf:RDF>
      <cc:Work
         rdf:about="">
        <dc:format>image/svg+xml</dc:format>
        <dc:type
           rdf:resource="http://purl.org/dc/dcmitype/StillImage" />
      </cc:Work>
    </rdf:RDF>
  </metadata>
  <g
     inkscape:groupmode="layer"
     id="background"
     inkscape:label="Background">
    <rect
       style="fill:#000000;fill-opacity:1;stroke:none"
       id="rect3758"
       width="768"
       height="768"
       x="128"
       y="128" />
  </g>
  <g
     inkscape:label="icon"
     inkscape:groupmode="layer"
     id="icon"
     transform="translate(0,-28.362183)">
    <g
       transform="matrix(4.0444146,0,0,4.0444146,-1104.6757,-883.03635)"
       style="font-size:40px;font-style:normal;font-weight:normal;line-height:125%;letter-spacing:0px;word-spacing:0px;opacity:0.8;fill:#ffffff;fill-opacity:0.94117647;stroke:none;font-family:Sans"
       id="flowRoot3777">
      <path
         d="m 410.94531,372.01601 -26.71875,0 0,-2.67187 c -3e-5,-4.54684 0.5156,-8.22652 1.54688,-11.03906 1.03122,-2.85933 2.55465,-5.46089 4.57031,-7.80469 2.06246,-2.34369 6.65621,-6.46869 13.78125,-12.375 3.79682,-3.09368 5.69526,-5.92962 5.69531,-8.50781 -5e-5,-2.57805 -0.77349,-4.57024 -2.32031,-5.97657 -1.50005,-1.45304 -3.79692,-2.1796 -6.89063,-2.17968 -3.32816,8e-5 -6.09378,1.10164 -8.29687,3.30468 -2.15628,2.20321 -3.5391,6.04695 -4.14844,11.53125 l -27.28125,-3.375 c 0.9375,-10.03116 4.57031,-18.09366 10.89844,-24.1875 6.37498,-6.14052 16.12497,-9.21083 29.25,-9.21093 10.21869,1e-4 18.46869,2.13291 24.75,6.39843 8.53117,5.76572 12.79679,13.45321 12.79687,23.0625 -8e-5,3.98445 -1.10164,7.8282 -3.30468,11.53125 -2.2032,3.70319 -6.7032,8.22662 -13.5,13.57032 -4.73444,3.75004 -7.73444,6.77348 -9,9.07031 -1.21881,2.25004 -1.82818,5.20316 -1.82813,8.85937 m -27.63281,7.10157 28.61719,0 0,25.24218 -28.61719,0 0,-25.24218"
         style="font-size:144px;font-variant:normal;font-stretch:normal;text-align:start;line-height:125%;writing-mode:lr-tb;text-anchor:start;fill:#ffffff;font-family:Arial Black;-inkscape-font-specification:'Arial Black,'"
         id="path3804" />
    </g>
    <path
       style="opacity:0.8;fill:#ffffff;fill-opacity:0.94117647;stroke:none"
       d="M 512 128 C 299.92265 128 128 299.92265 128 512 C 128 724.07735 299.92265 896 512 896 C 724.07735 896 896 724.07735 896 512 C 896 299.92265 724.07735 128 512 128 z M 512 192 C 688.73112 192 832 335.26888 832 512 C 832 688.73112 688.73112 832 512 832 C 335.26888 832 192 688.73112 192 512 C 192 335.26888 335.26888 192 512 192 z "
       transform="translate(0,28.362183)"
       id="path3785" />
  </g>
</svg>
