<?xml version="1.0" encoding="UTF-8" standalone="no"?>
<!-- Created with Inkscape (http://www.inkscape.org/) -->

<svg
   xmlns:dc="http://purl.org/dc/elements/1.1/"
   xmlns:cc="http://creativecommons.org/ns#"
   xmlns:rdf="http://www.w3.org/1999/02/22-rdf-syntax-ns#"
   xmlns:svg="http://www.w3.org/2000/svg"
   xmlns="http://www.w3.org/2000/svg"
   xmlns:sodipodi="http://sodipodi.sourceforge.net/DTD/sodipodi-0.dtd"
   xmlns:inkscape="http://www.inkscape.org/namespaces/inkscape"
   width="24"
   height="24"
   id="svg3795"
   version="1.1"
   inkscape:version="0.48.2 r9819"
   sodipodi:docname="ic_action_search.svg">
  <defs
     id="defs3797" />
  <sodipodi:namedview
     id="base"
     pagecolor="#ffffff"
     bordercolor="#666666"
     borderopacity="1.0"
     inkscape:pageopacity="0.0"
     inkscape:pageshadow="2"
     inkscape:zoom="34.916667"
     inkscape:cx="12"
     inkscape:cy="12.000139"
     inkscape:document-units="px"
     inkscape:current-layer="icon"
     showgrid="true"
     showguides="true"
     inkscape:guide-bbox="true"
     inkscape:window-width="1920"
     inkscape:window-height="1032"
     inkscape:window-x="0"
     inkscape:window-y="0"
     inkscape:window-maximized="1"
     inkscape:snap-global="true">
    <sodipodi:guide
       orientation="0,1"
       position="580,0"
       id="guide4320" />
    <sodipodi:guide
       position="0,0"
       orientation="0,1024"
       id="guide4322" />
    <sodipodi:guide
       position="1024,0"
       orientation="-1024,0"
       id="guide4324" />
    <sodipodi:guide
       position="1024,1024"
       orientation="0,-1024"
       id="guide4326" />
    <sodipodi:guide
       position="0,1024"
       orientation="1024,0"
       id="guide4328" />
    <inkscape:grid
       type="xygrid"
       id="grid3006"
       empspacing="5"
       visible="true"
       enabled="true"
       snapvisiblegridlinesonly="true" />
  </sodipodi:namedview>
  <metadata
     id="metadata3800">
    <rdf:RDF>
      <cc:Work
         rdf:about="">
        <dc:format>image/svg+xml</dc:format>
        <dc:type
           rdf:resource="http://purl.org/dc/dcmitype/StillImage" />
      </cc:Work>
    </rdf:RDF>
  </metadata>
  <g
     inkscape:groupmode="layer"
     id="background"
     inkscape:label="background"
     transform="translate(0,-1000)"
     sodipodi:insensitive="true">
    <rect
       transform="translate(0,-28.3622)"
       style="fill:#000000;fill-opacity:1;stroke:none"
       id="rect4314"
       width="24"
       height="24"
       x="0"
       y="1028.3621" />
  </g>
  <g
     inkscape:label="icon"
     inkscape:groupmode="layer"
     id="icon"
     transform="translate(0,-1028.3622)">
    <path
       style="opacity:0.8;fill:#ffffff;fill-opacity:1;stroke:none"
       d="m 9.4978712,1031.3623 c -1.6586317,0 -3.2930244,0.6143 -4.5625373,1.8749 -2.5476028,2.5292 -2.5919041,6.6401 -0.062467,9.1875 2.416328,2.4336 6.2822601,2.5732 8.8437171,0.375 l 0.71877,0.7188 -4.2e-5,1.4062 4.437511,4.4375 2.125001,-2.125 -4.437512,-4.4375 -1.406199,0 -0.71877,-0.7187 c 2.175997,-2.5462 2.088813,-6.363 -0.312472,-8.7813 l -0.03109,-0.031 c -1.266439,-1.2638 -2.935209,-1.9016 -4.5937661,-1.9063 z m -2e-5,1.9999 c 1.1464388,0 2.3106998,0.4377 3.1875188,1.3125 l 0.03109,0.031 c 1.751141,1.7636 1.701036,4.6238 -0.06251,6.375 -1.764392,1.7502 -4.6239674,1.7008 -6.3750147,-0.062 -1.7511331,-1.7636 -1.7011218,-4.5927 0.062511,-6.3437 0.8828678,-0.8687 2.0097925,-1.3174 3.1562312,-1.3126 z"
       id="path2992"
       inkscape:connector-curvature="0"
       sodipodi:nodetypes="scsccccccccccsscccccscc" />
  </g>
</svg>
