<?xml version="1.0" encoding="UTF-8" standalone="no"?>
<!-- Created with Inkscape (http://www.inkscape.org/) -->

<svg
   xmlns:dc="http://purl.org/dc/elements/1.1/"
   xmlns:cc="http://creativecommons.org/ns#"
   xmlns:rdf="http://www.w3.org/1999/02/22-rdf-syntax-ns#"
   xmlns:svg="http://www.w3.org/2000/svg"
   xmlns="http://www.w3.org/2000/svg"
   xmlns:sodipodi="http://sodipodi.sourceforge.net/DTD/sodipodi-0.dtd"
   xmlns:inkscape="http://www.inkscape.org/namespaces/inkscape"
   width="24"
   height="24"
   id="svg3795"
   version="1.1"
   inkscape:version="0.48.2 r9819"
   sodipodi:docname="ic_action_zoomin.svg">
  <defs
     id="defs3797" />
  <sodipodi:namedview
     id="base"
     pagecolor="#ffffff"
     bordercolor="#666666"
     borderopacity="1.0"
     inkscape:pageopacity="0.0"
     inkscape:pageshadow="2"
     inkscape:zoom="34.916667"
     inkscape:cx="3.937948"
     inkscape:cy="10.854554"
     inkscape:document-units="px"
     inkscape:current-layer="icon"
     showgrid="true"
     showguides="true"
     inkscape:guide-bbox="true"
     inkscape:window-width="1920"
     inkscape:window-height="1032"
     inkscape:window-x="0"
     inkscape:window-y="0"
     inkscape:window-maximized="1"
     inkscape:snap-global="true">
    <sodipodi:guide
       orientation="0,1"
       position="580,0"
       id="guide4320" />
    <sodipodi:guide
       position="0,0"
       orientation="0,1024"
       id="guide4322" />
    <sodipodi:guide
       position="1024,0"
       orientation="-1024,0"
       id="guide4324" />
    <sodipodi:guide
       position="1024,1024"
       orientation="0,-1024"
       id="guide4326" />
    <sodipodi:guide
       position="0,1024"
       orientation="1024,0"
       id="guide4328" />
    <inkscape:grid
       type="xygrid"
       id="grid3006"
       empspacing="5"
       visible="true"
       enabled="true"
       snapvisiblegridlinesonly="true" />
  </sodipodi:namedview>
  <metadata
     id="metadata3800">
    <rdf:RDF>
      <cc:Work
         rdf:about="">
        <dc:format>image/svg+xml</dc:format>
        <dc:type
           rdf:resource="http://purl.org/dc/dcmitype/StillImage" />
      </cc:Work>
    </rdf:RDF>
  </metadata>
  <g
     inkscape:groupmode="layer"
     id="background"
     inkscape:label="background"
     transform="translate(0,-1000)"
     sodipodi:insensitive="true">
    <rect
       transform="translate(0,-28.3622)"
       style="fill:#000000;fill-opacity:1;stroke:none"
       id="rect4314"
       width="24"
       height="24"
       x="0"
       y="1028.3621" />
  </g>
  <g
     inkscape:label="icon"
     inkscape:groupmode="layer"
     id="icon"
     transform="translate(0,-1028.3622)">
    <path
       style="opacity:0.8;fill:#ffffff;fill-opacity:1;stroke:none"
       d="m 11.408752,1031.3625 c -0.971306,0.011 -1.9601231,0.2124 -2.9062589,0.625 -3.7968374,1.6558 -5.5308168,6.0784 -3.8750286,9.8749 1.6557524,3.7969 6.0780285,5.5309 9.8749875,3.875 0.72628,-0.3167 1.371012,-0.7235 1.937547,-1.2187 l 0.718703,0.7187 2.3e-5,1.4063 2.718401,2.7184 2.125,-2.125 -2.718402,-2.7184 -1.406272,0 -0.718703,-0.7187 c 1.839304,-2.1154 2.413569,-5.1664 1.218734,-7.9063 l 7.1e-5,-0.031 c -1.250984,-2.8325 -4.054949,-4.5333 -6.968729,-4.4999 z m 0.03124,2 c 2.134597,-0.024 4.176315,1.204 5.093737,3.2812 l -7.1e-5,0.031 c 1.214281,2.7843 -0.05948,6.0357 -2.843743,7.25 -2.784462,1.214 -6.0043648,-0.091 -7.2187788,-2.875 -1.2141976,-2.7844 0.059522,-6.0045 2.8437442,-7.2188 0.6938056,-0.3025 1.4135066,-0.4609 2.1250396,-0.4687 z"
       id="path2992"
       inkscape:connector-curvature="0"
       sodipodi:nodetypes="cccscccccccccccccccccccc" />
    <path
       style="opacity:0.8;fill:#ffffff;fill-opacity:1;stroke:none"
       d="m 10.5,1035.3622 0,2.5 -2.5,0 0,2 2.5,0 0,2.5 2,0 0,-2.5 2.5,0 0,-2 -2.5,0 0,-2.5 -2,0 z"
       id="rect3026"
       inkscape:connector-curvature="0" />
  </g>
</svg>
