<?xml version="1.0" encoding="UTF-8" standalone="no"?>
<!-- Created with Inkscape (http://www.inkscape.org/) -->

<svg
   xmlns:dc="http://purl.org/dc/elements/1.1/"
   xmlns:cc="http://creativecommons.org/ns#"
   xmlns:rdf="http://www.w3.org/1999/02/22-rdf-syntax-ns#"
   xmlns:svg="http://www.w3.org/2000/svg"
   xmlns="http://www.w3.org/2000/svg"
   xmlns:sodipodi="http://sodipodi.sourceforge.net/DTD/sodipodi-0.dtd"
   xmlns:inkscape="http://www.inkscape.org/namespaces/inkscape"
   width="24"
   height="24"
   id="svg4909"
   version="1.1"
   inkscape:version="0.48.2 r9819"
   sodipodi:docname="ic_action_overflow.svg"
   style="enable-background:new">
  <defs
     id="defs4911" />
  <sodipodi:namedview
     id="base"
     pagecolor="#ffffff"
     bordercolor="#666666"
     borderopacity="1.0"
     inkscape:pageopacity="0.0"
     inkscape:pageshadow="2"
     inkscape:zoom="11.2"
     inkscape:cx="23.939624"
     inkscape:cy="-2.8282787"
     inkscape:document-units="px"
     inkscape:current-layer="icon"
     showgrid="false"
     inkscape:window-width="1920"
     inkscape:window-height="1032"
     inkscape:window-x="0"
     inkscape:window-y="0"
     inkscape:window-maximized="1" />
  <metadata
     id="metadata4914">
    <rdf:RDF>
      <cc:Work
         rdf:about="">
        <dc:format>image/svg+xml</dc:format>
        <dc:type
           rdf:resource="http://purl.org/dc/dcmitype/StillImage" />
        <dc:title />
      </cc:Work>
    </rdf:RDF>
  </metadata>
  <g
     inkscape:groupmode="layer"
     id="background"
     inkscape:label="background"
     transform="translate(0,-1000)">
    <rect
       transform="translate(0,-28.3622)"
       style="enable-background:new;display:inline;fill:#000000;fill-opacity:1;stroke:none"
       id="rect5426"
       width="24"
       height="24"
       x="-8.8817842e-16"
       y="1028.3622" />
  </g>
  <g
     inkscape:label="icon"
     inkscape:groupmode="layer"
     id="icon"
     transform="translate(0,-1028.3622)"
     style="display:inline">
    <g
       id="g2987"
       transform="translate(0.3999998,-1.8686993)">
      <path
         transform="matrix(0.02152064,0,0,0.02152064,0.3826096,1028.4886)"
         d="m 614.17274,288.60895 c 0,51.32605 -41.60798,92.93403 -92.93403,92.93403 -51.32605,0 -92.93404,-41.60798 -92.93404,-92.93403 0,-51.32605 41.60799,-92.93404 92.93404,-92.93404 51.32605,0 92.93403,41.60799 92.93403,92.93404 z"
         sodipodi:ry="92.934036"
         sodipodi:rx="92.934036"
         sodipodi:cy="288.60895"
         sodipodi:cx="521.23871"
         id="path3757"
         style="opacity:0.8;fill:#ffffff;fill-opacity:0.94117647;stroke:none"
         sodipodi:type="arc" />
      <path
         sodipodi:type="arc"
         style="opacity:0.8;fill:#ffffff;fill-opacity:0.94117647;stroke:none"
         id="path3759"
         sodipodi:cx="521.23871"
         sodipodi:cy="288.60895"
         sodipodi:rx="92.934036"
         sodipodi:ry="92.934036"
         d="m 614.17274,288.60895 c 0,51.32605 -41.60798,92.93403 -92.93403,92.93403 -51.32605,0 -92.93404,-41.60798 -92.93404,-92.93403 0,-51.32605 41.60799,-92.93404 92.93404,-92.93404 51.32605,0 92.93403,41.60799 92.93403,92.93404 z"
         transform="matrix(0.02152064,0,0,0.02152064,0.3826096,1036.0199)" />
      <path
         transform="matrix(0.02152064,0,0,0.02152064,0.3826096,1043.5511)"
         d="m 614.17274,288.60895 c 0,51.32605 -41.60798,92.93403 -92.93403,92.93403 -51.32605,0 -92.93404,-41.60798 -92.93404,-92.93403 0,-51.32605 41.60799,-92.93404 92.93404,-92.93404 51.32605,0 92.93403,41.60799 92.93403,92.93404 z"
         sodipodi:ry="92.934036"
         sodipodi:rx="92.934036"
         sodipodi:cy="288.60895"
         sodipodi:cx="521.23871"
         id="path3761"
         style="opacity:0.8;fill:#ffffff;fill-opacity:0.94117647;stroke:none"
         sodipodi:type="arc" />
    </g>
  </g>
</svg>
