<?xml version="1.0" encoding="UTF-8" standalone="no"?>
<!-- Created with Inkscape (http://www.inkscape.org/) -->

<svg
   xmlns:dc="http://purl.org/dc/elements/1.1/"
   xmlns:cc="http://creativecommons.org/ns#"
   xmlns:rdf="http://www.w3.org/1999/02/22-rdf-syntax-ns#"
   xmlns:svg="http://www.w3.org/2000/svg"
   xmlns="http://www.w3.org/2000/svg"
   xmlns:sodipodi="http://sodipodi.sourceforge.net/DTD/sodipodi-0.dtd"
   xmlns:inkscape="http://www.inkscape.org/namespaces/inkscape"
   width="24"
   height="24"
   id="svg4909"
   version="1.1"
   inkscape:version="0.48.2 r9819"
   sodipodi:docname="ic_action_friend.svg">
  <defs
     id="defs4911" />
  <sodipodi:namedview
     id="base"
     pagecolor="#ffffff"
     bordercolor="#666666"
     borderopacity="1.0"
     inkscape:pageopacity="0.0"
     inkscape:pageshadow="2"
     inkscape:zoom="0.7"
     inkscape:cx="-15.99634"
     inkscape:cy="-21.751178"
     inkscape:document-units="px"
     inkscape:current-layer="background"
     showgrid="false"
     inkscape:window-width="1440"
     inkscape:window-height="852"
     inkscape:window-x="0"
     inkscape:window-y="0"
     inkscape:window-maximized="1" />
  <metadata
     id="metadata4914">
    <rdf:RDF>
      <cc:Work
         rdf:about="">
        <dc:format>image/svg+xml</dc:format>
        <dc:type
           rdf:resource="http://purl.org/dc/dcmitype/StillImage" />
        <dc:title />
      </cc:Work>
    </rdf:RDF>
  </metadata>
  <g
     inkscape:groupmode="layer"
     id="background"
     inkscape:label="background"
     transform="translate(0,-1000)">
    <rect
       style="fill:#000000;fill-opacity:1;stroke:none"
       id="rect5426"
       width="24"
       height="24"
       x="0"
       y="1000" />
  </g>
  <g
     inkscape:label="icon"
     inkscape:groupmode="layer"
     id="icon"
     transform="translate(0,-1028.3622)">
    <path
       style="opacity:0.8;fill:#ffffff;fill-opacity:0.94117647;stroke:none"
       d="m 11.86175,1028.3622 c -2.6137,0 -4.73204,2.7555 -4.73204,6.1535 0,2.3387 1.68491,4.0616 2.10586,6.2707 0.0548,0.2874 0.0508,0.678 0.0492,1.091 -0.0119,3.1419 -9.27422,2.1893 -9.27422,5.2407 l 0,1.0886 c -0.0138,0.099 -0.0211,0.1993 -0.0211,0.3024 l 0,0.9398 c 0,1.1986 0.96195,2.9133 2.15742,2.9133 l 19.30899,0 c 1.191,0 2.52365,-1.768 2.53359,-2.9004 l 0,-0.013 c 3e-4,-0.023 0.0211,-1.57 0.0211,-2.3308 0,-3.0499 -9.14646,-2.0995 -9.26953,-5.2395 -0.0122,-0.3115 -0.006,-0.8331 0.0445,-1.132 0.36933,-2.1706 1.80938,-4.0527 1.80938,-6.2309 0,-3.398 -2.1195,-6.1535 -4.7332,-6.1535 z m 0,2.3766 c 0.47184,0 0.96222,0.2251 1.4625,0.8754 0.50027,0.6502 0.89414,1.6956 0.89414,2.9004 0,1.1305 -1.27399,2.8798 -1.77657,5.8335 -0.12229,0.7188 -0.0936,1.1771 -0.0762,1.6219 0.038,0.9706 0.4994,1.9189 1.0711,2.5313 0.57169,0.6124 1.20257,0.9724 1.81523,1.2527 1.22532,0.5606 2.47702,0.8234 3.63047,1.0922 0.90402,0.1982 2.28129,0.5923 2.53242,0.7898 0.30375,0.2627 0.22232,1.2169 0.19805,1.8129 -6.5e-4,0.3236 -0.18968,0.5469 -0.49219,0.5367 0,0 -18.03224,-0 -18.31406,0 -0.23146,0 -0.43838,-0.2524 -0.44063,-0.5367 -0.002,-0.3086 0,-0.9258 0,-0.9258 0,0 -0.01,-0.5573 0.23789,-0.8589 0.24922,-0.2718 1.41378,-0.5479 2.57578,-0.8168 1.162,-0.269 2.41639,-0.5307 3.64454,-1.0957 0.61407,-0.2826 1.24901,-0.6465 1.81992,-1.2762 0.5709,-0.6298 1.01349,-1.6129 1.01718,-2.5899 0.002,-0.4034 0.0424,-0.8485 -0.0902,-1.5445 -0.29835,-1.5657 -0.95764,-2.732 -1.39805,-3.6609 -0.44041,-0.929 -0.66679,-1.5672 -0.66679,-2.1656 0,-1.2051 0.39411,-2.2515 0.89414,-2.9016 0.50003,-0.6501 0.98948,-0.8742 1.46133,-0.8742 z"
       id="path3758"
       inkscape:connector-curvature="0" />
  </g>
</svg>
