<?xml version="1.0" encoding="UTF-8" standalone="no"?>
<!-- Created with Inkscape (http://www.inkscape.org/) -->

<svg
   xmlns:dc="http://purl.org/dc/elements/1.1/"
   xmlns:cc="http://creativecommons.org/ns#"
   xmlns:rdf="http://www.w3.org/1999/02/22-rdf-syntax-ns#"
   xmlns:svg="http://www.w3.org/2000/svg"
   xmlns="http://www.w3.org/2000/svg"
   xmlns:sodipodi="http://sodipodi.sourceforge.net/DTD/sodipodi-0.dtd"
   xmlns:inkscape="http://www.inkscape.org/namespaces/inkscape"
   width="24"
   height="24"
   id="svg2990"
   version="1.1"
   inkscape:version="0.48.2 r9819"
   sodipodi:docname="ic_action_tag.svg"
   inkscape:export-xdpi="1.05"
   inkscape:export-ydpi="1.05">
  <defs
     id="defs2992" />
  <sodipodi:namedview
     id="base"
     pagecolor="#ffffff"
     bordercolor="#666666"
     borderopacity="1.0"
     inkscape:pageopacity="0.0"
     inkscape:pageshadow="2"
     inkscape:zoom="32.862745"
     inkscape:cx="6.8117542"
     inkscape:cy="12.75"
     inkscape:document-units="px"
     inkscape:current-layer="icon"
     showgrid="true"
     inkscape:window-width="1920"
     inkscape:window-height="1032"
     inkscape:window-x="0"
     inkscape:window-y="0"
     inkscape:window-maximized="1"
     showguides="true"
     inkscape:guide-bbox="true">
    <inkscape:grid
       type="xygrid"
       id="grid2986" />
  </sodipodi:namedview>
  <metadata
     id="metadata2995">
    <rdf:RDF>
      <cc:Work
         rdf:about="">
        <dc:format>image/svg+xml</dc:format>
        <dc:type
           rdf:resource="http://purl.org/dc/dcmitype/StillImage" />
        <dc:title />
      </cc:Work>
    </rdf:RDF>
  </metadata>
  <g
     inkscape:groupmode="layer"
     id="background"
     inkscape:label="background"
     transform="translate(0,-1000)">
    <path
       style="fill:#000000;fill-opacity:1;stroke:none"
       d="m 0,1000 24,0 0,24 -24,0 z"
       id="rect2984" />
  </g>
  <g
     inkscape:label="icon"
     inkscape:groupmode="layer"
     id="icon"
     transform="translate(0,-1028.3622)">
    <path
       sodipodi:type="arc"
       style="opacity:0.8;fill:#ffffff;fill-opacity:0.94117647;stroke:none"
       id="path3805"
       sodipodi:cx="7.7781744"
       sodipodi:cy="7.4271846"
       sodipodi:rx="2.3864853"
       sodipodi:ry="2.3864853"
       d="m 10.16466,7.4271846 a 2.3864853,2.3864853 0 1 1 -4.7729709,0 2.3864853,2.3864853 0 1 1 4.7729709,0 z"
       transform="matrix(0.62853937,0,0,0.62853937,3.1111112,1031.6939)" />
    <path
       style="opacity:0.8;fill:#ffffff;fill-opacity:1;stroke:none"
       d="m 2.000001,1030.3864 0,8.9714 c -4.76e-5,0.5522 0.2319902,1.0717 0.5966213,1.4363 l 2.6295533,2.6296 6.3639604,6.3639 c 0.361914,0.3619 0.861937,0.5746 1.414214,0.5746 0.552294,0 1.055114,-0.2154 1.414214,-0.5746 l 7.004776,-7.0047 c 0.02229,-0.022 0.04509,-0.043 0.06629,-0.066 0.320455,-0.3526 0.508232,-0.8299 0.508233,-1.348 2e-5,-0.5522 -0.212609,-1.0523 -0.574524,-1.4142 l -6.363961,-6.3639 -2.629553,-2.6296 c -0.364631,-0.3646 -0.884034,-0.5966 -1.436311,-0.5966 L 2,1030.3866 z m 2.032932,2.0329 6.960582,-0.022 0.0221,-0.022 0.0221,0.022 8.971418,8.9714 -7.004777,7.0048 -8.971417,-8.9714 0,-0.044 0,-6.9385 z"
       id="rect2993"
       inkscape:connector-curvature="0" />
  </g>
</svg>
