<?xml version="1.0" encoding="UTF-8" standalone="no"?>
<!-- Created with Inkscape (http://www.inkscape.org/) -->

<svg
   xmlns:dc="http://purl.org/dc/elements/1.1/"
   xmlns:cc="http://creativecommons.org/ns#"
   xmlns:rdf="http://www.w3.org/1999/02/22-rdf-syntax-ns#"
   xmlns:svg="http://www.w3.org/2000/svg"
   xmlns="http://www.w3.org/2000/svg"
   xmlns:sodipodi="http://sodipodi.sourceforge.net/DTD/sodipodi-0.dtd"
   xmlns:inkscape="http://www.inkscape.org/namespaces/inkscape"
   width="24"
   height="24"
   id="svg2"
   version="1.1"
   inkscape:version="0.48.2 r9819"
   sodipodi:docname="ic_action_history.svg">
  <defs
     id="defs4" />
  <sodipodi:namedview
     id="base"
     pagecolor="#ffffff"
     bordercolor="#666666"
     borderopacity="1.0"
     inkscape:pageopacity="0.0"
     inkscape:pageshadow="2"
     inkscape:zoom="34.916667"
     inkscape:cx="7.1169452"
     inkscape:cy="12.000017"
     inkscape:document-units="px"
     inkscape:current-layer="icon"
     showgrid="true"
     inkscape:window-width="1920"
     inkscape:window-height="1032"
     inkscape:window-x="0"
     inkscape:window-y="0"
     inkscape:window-maximized="1">
    <inkscape:grid
       type="xygrid"
       id="grid2985" />
  </sodipodi:namedview>
  <metadata
     id="metadata7">
    <rdf:RDF>
      <cc:Work
         rdf:about="">
        <dc:format>image/svg+xml</dc:format>
        <dc:type
           rdf:resource="http://purl.org/dc/dcmitype/StillImage" />
      </cc:Work>
    </rdf:RDF>
  </metadata>
  <g
     inkscape:groupmode="layer"
     id="background"
     inkscape:label="Background"
     transform="translate(0,-1000)"
     sodipodi:insensitive="true">
    <rect
       transform="translate(0,-28.3622)"
       style="fill:#000000;fill-opacity:1;stroke:none"
       id="rect3758"
       width="24"
       height="24"
       x="0"
       y="1028.3622" />
  </g>
  <g
     inkscape:label="icon"
     inkscape:groupmode="layer"
     id="icon"
     transform="translate(0,-1028.3622)">
    <path
       id="path3014"
       style="opacity:0.8;fill:#ffffff;fill-opacity:0.94117647;stroke:none"
       d="m 0,1039.831 3.3745,5.3992 3.3745,-5.3992 -2.9246,0 -1.4398,0 -2.3846,0 z m 2,0 2,0 c 0.099,-1.5117 0.7388,-2.8331 1.5625,-4 l -2.4375,0 c -0.6214,1.2151 -1.0496,2.5604 -1.125,4 z m 1.125,-4 2.4375,0 c 1.4488,-2.0526 3.7328,-3.4688 6.4375,-3.4688 4.4211,0 8,3.5817 8,8 0,4.4183 -3.5789,8 -8,8 -1.2992,0 -2.5401,-0.2948 -3.625,-0.8437 l -1.0625,1.6875 c 1.3952,0.7381 2.9988,1.1562 4.6875,1.1562 5.5263,0 10,-4.4772 10,-10 0,-5.5228 -4.4737,-10 -10,-10 -3.8888,0 -7.2189,2.2306 -8.875,5.4688 z"
       inkscape:connector-curvature="0" />
    <path
       style="opacity:0.8;fill:#ffffff;fill-opacity:1;stroke:none"
       d="M 11 6 L 11 11 L 11 13 L 13 13 L 18 13 L 18 11 L 13 11 L 13 6 L 11 6 z "
       transform="translate(0,1028.3622)"
       id="rect2986" />
  </g>
</svg>
