<?xml version="1.0" encoding="UTF-8" standalone="no"?>
<!-- Created with Inkscape (http://www.inkscape.org/) -->

<svg
   xmlns:dc="http://purl.org/dc/elements/1.1/"
   xmlns:cc="http://creativecommons.org/ns#"
   xmlns:rdf="http://www.w3.org/1999/02/22-rdf-syntax-ns#"
   xmlns:svg="http://www.w3.org/2000/svg"
   xmlns="http://www.w3.org/2000/svg"
   xmlns:sodipodi="http://sodipodi.sourceforge.net/DTD/sodipodi-0.dtd"
   xmlns:inkscape="http://www.inkscape.org/namespaces/inkscape"
   width="24"
   height="24"
   id="svg2"
   version="1.1"
   inkscape:version="0.48.2 r9819"
   sodipodi:docname="ic_action_reload.svg">
  <defs
     id="defs4" />
  <sodipodi:namedview
     id="base"
     pagecolor="#ffffff"
     bordercolor="#666666"
     borderopacity="1.0"
     inkscape:pageopacity="0.0"
     inkscape:pageshadow="2"
     inkscape:zoom="34.916667"
     inkscape:cx="12"
     inkscape:cy="12.000017"
     inkscape:document-units="px"
     inkscape:current-layer="icon"
     showgrid="true"
     inkscape:window-width="1920"
     inkscape:window-height="1032"
     inkscape:window-x="0"
     inkscape:window-y="0"
     inkscape:window-maximized="1">
    <inkscape:grid
       type="xygrid"
       id="grid2985" />
  </sodipodi:namedview>
  <metadata
     id="metadata7">
    <rdf:RDF>
      <cc:Work
         rdf:about="">
        <dc:format>image/svg+xml</dc:format>
        <dc:type
           rdf:resource="http://purl.org/dc/dcmitype/StillImage" />
      </cc:Work>
    </rdf:RDF>
  </metadata>
  <g
     inkscape:groupmode="layer"
     id="background"
     inkscape:label="Background"
     transform="translate(0,-1000)"
     sodipodi:insensitive="true">
    <rect
       transform="translate(0,-28.3622)"
       style="fill:#000000;fill-opacity:1;stroke:none"
       id="rect3758"
       width="24"
       height="24"
       x="0"
       y="1028.3622" />
  </g>
  <g
     inkscape:label="icon"
     inkscape:groupmode="layer"
     id="icon"
     transform="translate(0,-1028.3622)">
    <path
       id="path3014"
       style="opacity:0.8;fill:#ffffff;fill-opacity:0.94117647;stroke:none"
       d="m 12.5312,1028.3622 -5.3992,3.3745 5.3992,3.3745 0,-2.9246 0,-1.4398 0,-2.3846 z m 5e-5,2 0,2 c 1.511645,0.099 2.833075,0.7388 4,1.5625 l 0,-2.4375 c -1.21513,-0.6214 -2.560427,-1.0496 -4,-1.125 z m 4,1.125 0,2.4375 c 2.052544,1.4488 3.46875,3.7328 3.46875,6.4375 0,4.4211 -3.581721,8 -8,8 -4.4182782,0 -8,-3.5789 -8,-8 0,-1.2992 0.2947853,-2.5401 0.84375,-3.625 l -1.6875,-1.0625 C 2.4181063,1037.0699 2,1038.6735 2,1040.3622 c 0,5.5263 4.4771525,10 10,10 5.522848,0 10,-4.4737 10,-10 0,-3.8888 -2.230553,-7.2189 -5.46875,-8.875 z" />
  </g>
</svg>
