<?xml version="1.0" encoding="UTF-8" standalone="no"?>
<!-- Created with Inkscape (http://www.inkscape.org/) -->

<svg
   xmlns:dc="http://purl.org/dc/elements/1.1/"
   xmlns:cc="http://creativecommons.org/ns#"
   xmlns:rdf="http://www.w3.org/1999/02/22-rdf-syntax-ns#"
   xmlns:svg="http://www.w3.org/2000/svg"
   xmlns="http://www.w3.org/2000/svg"
   xmlns:sodipodi="http://sodipodi.sourceforge.net/DTD/sodipodi-0.dtd"
   xmlns:inkscape="http://www.inkscape.org/namespaces/inkscape"
   width="24"
   height="24"
   id="svg3795"
   version="1.1"
   inkscape:version="0.48.2 r9819"
   sodipodi:docname="ic_action_settings.svg">
  <defs
     id="defs3797" />
  <sodipodi:namedview
     id="base"
     pagecolor="#ffffff"
     bordercolor="#666666"
     borderopacity="1.0"
     inkscape:pageopacity="0.0"
     inkscape:pageshadow="2"
     inkscape:zoom="34.916464"
     inkscape:cx="12"
     inkscape:cy="12.00007"
     inkscape:document-units="px"
     inkscape:current-layer="icon"
     showgrid="true"
     showguides="true"
     inkscape:guide-bbox="true"
     inkscape:window-width="1920"
     inkscape:window-height="1032"
     inkscape:window-x="0"
     inkscape:window-y="0"
     inkscape:window-maximized="1">
    <sodipodi:guide
       orientation="0,1"
       position="580,0"
       id="guide4320" />
    <sodipodi:guide
       position="0,0"
       orientation="0,1024"
       id="guide4322" />
    <sodipodi:guide
       position="1024,0"
       orientation="-1024,0"
       id="guide4324" />
    <sodipodi:guide
       position="1024,1024"
       orientation="0,-1024"
       id="guide4326" />
    <sodipodi:guide
       position="0,1024"
       orientation="1024,0"
       id="guide4328" />
    <inkscape:grid
       type="xygrid"
       id="grid2990" />
  </sodipodi:namedview>
  <metadata
     id="metadata3800">
    <rdf:RDF>
      <cc:Work
         rdf:about="">
        <dc:format>image/svg+xml</dc:format>
        <dc:type
           rdf:resource="http://purl.org/dc/dcmitype/StillImage" />
      </cc:Work>
    </rdf:RDF>
  </metadata>
  <g
     inkscape:groupmode="layer"
     id="background"
     inkscape:label="background"
     transform="translate(0,-1000)"
     sodipodi:insensitive="true">
    <rect
       transform="translate(0,-28.3622)"
       style="fill:#000000;fill-opacity:1;stroke:none"
       id="rect4314"
       width="24"
       height="24"
       x="0"
       y="1028.3621" />
  </g>
  <g
     inkscape:label="icon"
     inkscape:groupmode="layer"
     id="icon"
     transform="translate(0,-1028.3622)">
    <path
       style="opacity:0.8;fill:#ffffff;fill-opacity:1;stroke:none"
       d="M 11 0 L 11 2.0625 C 8.0708377 2.3509535 5.5403712 3.8927868 3.90625 6.15625 L 2.09375 5.125 L 1.09375 6.875 L 2.875 7.90625 C 2.3164913 9.1531315 2 10.545334 2 12 C 2 13.454666 2.3164913 14.846869 2.875 16.09375 L 1.09375 17.125 L 2.09375 18.875 L 3.90625 17.84375 C 5.5403712 20.107213 8.0708377 21.649047 11 21.9375 L 11 24 L 13 24 L 13 21.9375 C 15.929162 21.649047 18.459629 20.107213 20.09375 17.84375 L 21.90625 18.875 L 22.90625 17.125 L 21.125 16.09375 C 21.683509 14.846869 22 13.454666 22 12 C 22 10.545334 21.683509 9.1531315 21.125 7.90625 L 22.90625 6.875 L 21.90625 5.125 L 20.09375 6.15625 C 18.459629 3.8927868 15.929162 2.3509535 13 2.0625 L 13 0 L 11 0 z M 12 4 C 16.418278 4 20 7.5818 20 12 C 20 16.4182 16.418278 20 12 20 C 7.581722 20 4 16.4182 4 12 C 4 7.5818 7.581722 4 12 4 z "
       transform="translate(0,1028.3622)"
       id="path2992" />
  </g>
</svg>
