<?xml version="1.0" encoding="UTF-8" standalone="no"?>
<!-- Created with Inkscape (http://www.inkscape.org/) -->

<svg
   xmlns:dc="http://purl.org/dc/elements/1.1/"
   xmlns:cc="http://creativecommons.org/ns#"
   xmlns:rdf="http://www.w3.org/1999/02/22-rdf-syntax-ns#"
   xmlns:svg="http://www.w3.org/2000/svg"
   xmlns="http://www.w3.org/2000/svg"
   xmlns:sodipodi="http://sodipodi.sourceforge.net/DTD/sodipodi-0.dtd"
   xmlns:inkscape="http://www.inkscape.org/namespaces/inkscape"
   width="24"
   height="24"
   id="svg3795"
   version="1.1"
   inkscape:version="0.48.2 r9819"
   sodipodi:docname="ic_action_info.svg">
  <defs
     id="defs3797" />
  <sodipodi:namedview
     id="base"
     pagecolor="#ffffff"
     bordercolor="#666666"
     borderopacity="1.0"
     inkscape:pageopacity="0.0"
     inkscape:pageshadow="2"
     inkscape:zoom="34.916667"
     inkscape:cx="10.911695"
     inkscape:cy="12.000139"
     inkscape:document-units="px"
     inkscape:current-layer="icon"
     showgrid="true"
     showguides="true"
     inkscape:guide-bbox="true"
     inkscape:window-width="1920"
     inkscape:window-height="1032"
     inkscape:window-x="0"
     inkscape:window-y="0"
     inkscape:window-maximized="1"
     inkscape:snap-global="false">
    <sodipodi:guide
       orientation="0,1"
       position="580,0"
       id="guide4320" />
    <sodipodi:guide
       position="0,0"
       orientation="0,1024"
       id="guide4322" />
    <sodipodi:guide
       position="1024,0"
       orientation="-1024,0"
       id="guide4324" />
    <sodipodi:guide
       position="1024,1024"
       orientation="0,-1024"
       id="guide4326" />
    <sodipodi:guide
       position="0,1024"
       orientation="1024,0"
       id="guide4328" />
    <inkscape:grid
       type="xygrid"
       id="grid3006"
       empspacing="5"
       visible="true"
       enabled="true"
       snapvisiblegridlinesonly="true" />
  </sodipodi:namedview>
  <metadata
     id="metadata3800">
    <rdf:RDF>
      <cc:Work
         rdf:about="">
        <dc:format>image/svg+xml</dc:format>
        <dc:type
           rdf:resource="http://purl.org/dc/dcmitype/StillImage" />
      </cc:Work>
    </rdf:RDF>
  </metadata>
  <g
     inkscape:groupmode="layer"
     id="background"
     inkscape:label="background"
     transform="translate(0,-1000)"
     sodipodi:insensitive="true">
    <rect
       transform="translate(0,-28.3622)"
       style="fill:#000000;fill-opacity:1;stroke:none"
       id="rect4314"
       width="24"
       height="24"
       x="0"
       y="1028.3621" />
  </g>
  <g
     inkscape:label="icon"
     inkscape:groupmode="layer"
     id="icon"
     transform="translate(0,-1028.3622)">
    <path
       style="opacity:0.8;fill:#ffffff;fill-opacity:1;stroke:none"
       d="M 12 2 C 6.4771525 2 2 6.4771 2 12 C 2 17.5229 6.4771525 22 12 22 C 17.522847 22 22 17.5229 22 12 C 22 6.4771 17.522847 2 12 2 z M 12 4 C 16.418278 4 20 7.5817 20 12 C 20 16.4183 16.418278 20 12 20 C 7.581722 20 4 16.4183 4 12 C 4 7.5817 7.581722 4 12 4 z "
       transform="translate(0,1028.3622)"
       id="path2991" />
    <path
       style="opacity:0.8;fill:#ffffff;fill-opacity:1;stroke:none"
       d="m 13.5,1035.8623 c 0,0.8284 -0.671573,1.4999 -1.500001,1.4999 -0.828426,0 -1.499999,-0.6715 -1.499999,-1.4999 0,-0.8285 0.671573,-1.5001 1.499999,-1.5001 0.828428,0 1.500001,0.6716 1.500001,1.5001 z"
       id="path2997"
       inkscape:connector-curvature="0" />
    <path
       style="opacity:0.8;fill:#ffffff;fill-opacity:1;stroke:none"
       d="m 11,1039.3622 2,0 0,7 -2,0 z"
       id="rect3000"
       inkscape:connector-curvature="0" />
  </g>
</svg>
