<?xml version="1.0" encoding="UTF-8" standalone="no"?>
<!-- Created with Inkscape (http://www.inkscape.org/) -->

<svg
   xmlns:dc="http://purl.org/dc/elements/1.1/"
   xmlns:cc="http://creativecommons.org/ns#"
   xmlns:rdf="http://www.w3.org/1999/02/22-rdf-syntax-ns#"
   xmlns:svg="http://www.w3.org/2000/svg"
   xmlns="http://www.w3.org/2000/svg"
   xmlns:sodipodi="http://sodipodi.sourceforge.net/DTD/sodipodi-0.dtd"
   xmlns:inkscape="http://www.inkscape.org/namespaces/inkscape"
   width="24"
   height="24"
   id="svg3795"
   version="1.1"
   inkscape:version="0.48.2 r9819"
   sodipodi:docname="ic_action_settings2.svg">
  <defs
     id="defs3797" />
  <sodipodi:namedview
     id="base"
     pagecolor="#ffffff"
     bordercolor="#666666"
     borderopacity="1.0"
     inkscape:pageopacity="0.0"
     inkscape:pageshadow="2"
     inkscape:zoom="34.916464"
     inkscape:cx="10.854409"
     inkscape:cy="10.721913"
     inkscape:document-units="px"
     inkscape:current-layer="icon"
     showgrid="true"
     showguides="true"
     inkscape:guide-bbox="true"
     inkscape:window-width="1920"
     inkscape:window-height="1032"
     inkscape:window-x="0"
     inkscape:window-y="0"
     inkscape:window-maximized="1">
    <sodipodi:guide
       orientation="0,1"
       position="580,0"
       id="guide4320" />
    <sodipodi:guide
       position="0,0"
       orientation="0,1024"
       id="guide4322" />
    <sodipodi:guide
       position="1024,0"
       orientation="-1024,0"
       id="guide4324" />
    <sodipodi:guide
       position="1024,1024"
       orientation="0,-1024"
       id="guide4326" />
    <sodipodi:guide
       position="0,1024"
       orientation="1024,0"
       id="guide4328" />
    <inkscape:grid
       type="xygrid"
       id="grid2990" />
  </sodipodi:namedview>
  <metadata
     id="metadata3800">
    <rdf:RDF>
      <cc:Work
         rdf:about="">
        <dc:format>image/svg+xml</dc:format>
        <dc:type
           rdf:resource="http://purl.org/dc/dcmitype/StillImage" />
      </cc:Work>
    </rdf:RDF>
  </metadata>
  <g
     inkscape:groupmode="layer"
     id="background"
     inkscape:label="background"
     transform="translate(0,-1000)"
     sodipodi:insensitive="true">
    <rect
       transform="translate(0,-28.3622)"
       style="fill:#000000;fill-opacity:1;stroke:none"
       id="rect4314"
       width="24"
       height="24"
       x="0"
       y="1028.3621" />
  </g>
  <g
     inkscape:label="icon"
     inkscape:groupmode="layer"
     id="icon"
     transform="translate(0,-1028.3622)">
    <path
       style="opacity:0.8;fill:#ffffff;fill-opacity:1;stroke:none"
       d="M 10 0 L 10 2.21875 C 7.8236387 2.6557431 5.9431186 3.8015855 4.53125 5.40625 L 2.59375 4.28125 L 2.09375 5.125 L 1.09375 6.875 L 0.59375 7.71875 L 2.53125 8.8125 C 2.1926937 9.8170608 2 10.884646 2 12 C 2 13.115354 2.1926937 14.182939 2.53125 15.1875 L 0.59375 16.28125 L 1.09375 17.125 L 2.09375 18.875 L 2.59375 19.71875 L 4.53125 18.59375 C 5.9431186 20.198415 7.8236387 21.344257 10 21.78125 L 10 24 L 11 24 L 13 24 L 14 24 L 14 21.78125 C 16.176361 21.344257 18.056881 20.198415 19.46875 18.59375 L 21.40625 19.71875 L 21.90625 18.875 L 22.40625 18 L 22.90625 17.125 L 23.40625 16.28125 L 21.46875 15.1875 C 21.807306 14.182939 22 13.115354 22 12 C 22 10.884646 21.807306 9.8170608 21.46875 8.8125 L 23.40625 7.71875 L 22.90625 6.875 L 22.40625 6 L 21.90625 5.125 L 21.40625 4.28125 L 19.46875 5.40625 C 18.056881 3.8015855 16.176361 2.6557431 14 2.21875 L 14 0 L 13 0 L 11 0 L 10 0 z M 12 4 C 12.68881 4 13.362257 4.0862956 14 4.25 C 14.129267 4.2831819 14.248345 4.3356063 14.375 4.375 C 14.59879 4.4448144 14.81654 4.5052169 15.03125 4.59375 C 15.302098 4.7044134 15.557452 4.8301997 15.8125 4.96875 C 15.884084 5.007644 15.96101 5.0527486 16.03125 5.09375 C 16.181042 5.1813582 16.325371 5.2781349 16.46875 5.375 C 16.620487 5.477689 16.762132 5.574901 16.90625 5.6875 C 17.168154 5.8914899 17.421846 6.1093464 17.65625 6.34375 C 17.676924 6.3644285 17.698299 6.3853484 17.71875 6.40625 C 18.645356 7.3532619 19.320551 8.5312696 19.6875 9.84375 C 19.879501 10.530488 20 11.251986 20 12 C 20 12.748014 19.879501 13.469512 19.6875 14.15625 C 19.320551 15.46873 18.645356 16.646738 17.71875 17.59375 C 17.698311 17.614639 17.676915 17.635585 17.65625 17.65625 C 17.421846 17.890654 17.168154 18.10851 16.90625 18.3125 C 16.763763 18.423479 16.618711 18.523689 16.46875 18.625 C 16.321967 18.724337 16.184748 18.816648 16.03125 18.90625 C 15.736403 19.078695 15.442336 19.240778 15.125 19.375 C 15.095659 19.387517 15.060773 19.394077 15.03125 19.40625 C 14.698866 19.542056 14.352978 19.659393 14 19.75 C 13.362257 19.913704 12.68881 20 12 20 C 11.31119 20 10.637743 19.913704 10 19.75 C 9.6470221 19.659393 9.3011341 19.542056 8.96875 19.40625 C 8.9392274 19.394077 8.9043414 19.387517 8.875 19.375 C 8.5874757 19.253387 8.3316825 19.090612 8.0625 18.9375 C 7.967955 18.88381 7.8733418 18.838641 7.78125 18.78125 C 7.5440615 18.633407 7.3134687 18.483633 7.09375 18.3125 C 6.8318459 18.10851 6.5781536 17.890654 6.34375 17.65625 C 6.3334176 17.645918 6.322776 17.635389 6.3125 17.625 C 6.3022187 17.614605 6.2914755 17.604201 6.28125 17.59375 C 5.3546442 16.646738 4.6794488 15.46873 4.3125 14.15625 C 4.1204989 13.469512 4 12.748014 4 12 C 4 11.251986 4.1204989 10.530488 4.3125 9.84375 C 4.6794488 8.5312696 5.3546442 7.3532619 6.28125 6.40625 C 6.2914755 6.3957992 6.3022187 6.3853951 6.3125 6.375 C 6.322776 6.3646115 6.3334176 6.3540824 6.34375 6.34375 C 6.5781536 6.1093464 6.8318459 5.8914899 7.09375 5.6875 C 7.2378682 5.574901 7.3795135 5.477689 7.53125 5.375 C 7.6125331 5.3200862 7.6978773 5.2707173 7.78125 5.21875 C 7.8733418 5.1613589 7.967955 5.11619 8.0625 5.0625 C 8.3596841 4.8934603 8.6493571 4.7242482 8.96875 4.59375 C 9.1834596 4.5052169 9.4012095 4.4448144 9.625 4.375 C 9.7516547 4.3356063 9.8707333 4.2831819 10 4.25 C 10.637743 4.0862956 11.31119 4 12 4 z "
       transform="translate(0,1028.3622)"
       id="path2992" />
  </g>
</svg>
