<?xml version="1.0" encoding="UTF-8" standalone="no"?>
<!-- Created with Inkscape (http://www.inkscape.org/) -->

<svg
   xmlns:dc="http://purl.org/dc/elements/1.1/"
   xmlns:cc="http://creativecommons.org/ns#"
   xmlns:rdf="http://www.w3.org/1999/02/22-rdf-syntax-ns#"
   xmlns:svg="http://www.w3.org/2000/svg"
   xmlns="http://www.w3.org/2000/svg"
   xmlns:sodipodi="http://sodipodi.sourceforge.net/DTD/sodipodi-0.dtd"
   xmlns:inkscape="http://www.inkscape.org/namespaces/inkscape"
   width="1024"
   height="1024"
   id="svg4909"
   version="1.1"
   inkscape:version="0.48.2 r9819"
   sodipodi:docname="ic_action_comment.svg">
  <defs
     id="defs4911" />
  <sodipodi:namedview
     id="base"
     pagecolor="#ffffff"
     bordercolor="#666666"
     borderopacity="1.0"
     inkscape:pageopacity="0.0"
     inkscape:pageshadow="2"
     inkscape:zoom="0.7"
     inkscape:cx="731.23722"
     inkscape:cy="520"
     inkscape:document-units="px"
     inkscape:current-layer="icon"
     showgrid="false"
     inkscape:window-width="1440"
     inkscape:window-height="852"
     inkscape:window-x="0"
     inkscape:window-y="0"
     inkscape:window-maximized="1" />
  <metadata
     id="metadata4914">
    <rdf:RDF>
      <cc:Work
         rdf:about="">
        <dc:format>image/svg+xml</dc:format>
        <dc:type
           rdf:resource="http://purl.org/dc/dcmitype/StillImage" />
        <dc:title />
      </cc:Work>
    </rdf:RDF>
  </metadata>
  <g
     inkscape:groupmode="layer"
     id="background"
     inkscape:label="background"
     sodipodi:insensitive="true">
    <rect
       style="fill:#000000;fill-opacity:1;stroke:none"
       id="rect5426"
       width="640"
       height="640"
       x="192"
       y="192" />
  </g>
  <g
     inkscape:label="icon"
     inkscape:groupmode="layer"
     id="icon"
     transform="translate(0,-28.362183)">
    <path
       style="opacity:0.8;fill:#ffffff;fill-opacity:0.94117647;stroke:none"
       d="M 258.65625,192 C 221.72103,192 192,221.72103 192,258.65625 l 0,378.6875 C 192,674.27896 221.72103,704 258.65625,704 L 734,704 832,832 832,258.65625 C 832,221.72103 802.27897,192 765.34375,192 z M 290,288 l 444,0 0,88 -444,0 z m 0,116 444,0 0,88 -444,0 z m 0,116 444,0 0,88 -444,0 z"
       transform="translate(0,28.362183)"
       id="rect3757"
       inkscape:connector-curvature="0"
       sodipodi:nodetypes="ssssccsssccccccccccccccc" />
  </g>
</svg>
